<?xml version="1.0" encoding="iso-8859-1"?>
<!-- Generator: Adobe Illustrator 21.0.2, SVG Export Plug-In . SVG Version: 6.00 Build 0)  -->
<svg version="1.1" xmlns="http://www.w3.org/2000/svg" xmlns:xlink="http://www.w3.org/1999/xlink" x="0px" y="0px"
	 viewBox="0 0 64 64" style="enable-background:new 0 0 64 64;" xml:space="preserve">
<g id="_x32_5_attachment">
</g>
<g id="_x32_4_office">
</g>
<g id="_x32_3_pin">
</g>
<g id="_x32_2_business_card">
</g>
<g id="_x32_1_form">
</g>
<g id="_x32_0_headset">
</g>
<g id="_x31_9_video_call">
</g>
<g id="_x31_8_letter_box">
</g>
<g id="_x31_7_papperplane">
</g>
<g id="_x31_6_laptop">
</g>
<g id="_x31_5_connection">
</g>
<g id="_x31_4_phonebook">
</g>
<g id="_x31_3_classic_telephone">
</g>
<g id="_x31_2_sending_mail">
</g>
<g id="_x31_1_man_talking">
</g>
<g id="_x31_0_date">
	<g>
		<g>
			<path d="M53.1494,5.7119h-3.8086V5.3877c0-2.3433-1.9063-4.2495-4.249-4.2495c-2.3408,0-4.2461,1.9063-4.2461,4.2495v0.3242
				H22.4941V5.2461C22.4941,2.9048,20.5889,1,18.248,1c-2.3428,0-4.249,1.9048-4.249,4.2461v0.4658h-3.1455
				c-4.4746,0-8.1143,3.8633-8.1143,8.6123v40.0635c0,4.749,3.6396,8.6123,8.1143,8.6123h42.2959
				c4.4727,0,8.1113-3.8633,8.1113-8.6123V14.3242C61.2607,9.5752,57.6221,5.7119,53.1494,5.7119z M42.8457,5.3877
				c0-1.2402,1.0078-2.2495,2.2461-2.2495c1.2402,0,2.249,1.0093,2.249,2.2495v3.0596c0,1.2402-1.0088,2.2495-2.249,2.2495
				c-1.2383,0-2.2461-1.0093-2.2461-2.2495V5.3877z M15.999,5.2461C15.999,4.0078,17.0078,3,18.248,3
				c1.2383,0,2.2461,1.0078,2.2461,2.2461v3.063c0,1.2383-1.0078,2.2461-2.2461,2.2461c-1.2402,0-2.249-1.0078-2.249-2.2461V5.2461z
				 M59.2607,54.3877c0,3.646-2.7412,6.6123-6.1113,6.6123H10.8535c-3.3711,0-6.1143-2.9663-6.1143-6.6123V17.8652h54.5215V54.3877z
				 M59.2607,15.8652H4.7393v-1.541c0-3.646,2.7432-6.6123,6.1143-6.6123h3.1455v0.5972c0,2.3413,1.9063,4.2461,4.249,4.2461
				c2.3408,0,4.2461-1.9048,4.2461-4.2461V7.7119h18.3516v0.7354c0,2.3433,1.9053,4.2495,4.2461,4.2495
				c2.3428,0,4.249-1.9063,4.249-4.2495V7.7119h3.8086c3.3701,0,6.1113,2.9663,6.1113,6.6123V15.8652z"/>
			<path d="M11.4316,56.0688h10.2842h30.8525c0.5527,0,1-0.4478,1-1v-30.854c0-0.5522-0.4473-1-1-1H11.4316c-0.5527,0-1,0.4478-1,1
				v30.854C10.4316,55.6211,10.8789,56.0688,11.4316,56.0688z M51.5684,43.7842h-8.2842v-8.2847h8.2842V43.7842z M41.2842,43.7842
				H33v-8.2847h8.2842V43.7842z M31,43.7842h-8.2842v-8.2847H31V43.7842z M20.7158,43.7842h-8.2842v-8.2847h8.2842V43.7842z
				 M12.4316,45.7842h8.2842v8.2847h-8.2842V45.7842z M22.7158,45.7842H31v8.2847h-8.2842V45.7842z M33,45.7842h8.2842v8.2847H33
				V45.7842z M51.5684,54.0688h-8.2842v-8.2847h8.2842V54.0688z M51.5684,33.4995h-8.2842v-8.2847h8.2842V33.4995z M41.2842,33.4995
				H33v-8.2847h8.2842V33.4995z M31,33.4995h-8.2842v-8.2847H31V33.4995z M12.4316,25.2148h8.2842v8.2847h-8.2842V25.2148z"/>
		</g>
	</g>
</g>
<g id="_x30_9_review">
</g>
<g id="_x30_8_email">
</g>
<g id="_x30_7_information">
</g>
<g id="_x30_6_phone_talking">
</g>
<g id="_x30_5_women_talking">
</g>
<g id="_x30_4_calling">
</g>
<g id="_x30_3_women">
</g>
<g id="_x30_2_writing">
</g>
<g id="_x30_1_chatting">
</g>
</svg>
