<?xml version="1.0" encoding="iso-8859-1"?>
<!-- Generator: Adobe Illustrator 16.0.0, SVG Export Plug-In . SVG Version: 6.00 Build 0)  -->
<!DOCTYPE svg PUBLIC "-//W3C//DTD SVG 1.1//EN" "http://www.w3.org/Graphics/SVG/1.1/DTD/svg11.dtd">
<svg version="1.1" id="Capa_1" xmlns="http://www.w3.org/2000/svg" xmlns:xlink="http://www.w3.org/1999/xlink" x="0px" y="0px"
	 width="382.581px" height="382.581px" viewBox="0 0 382.581 382.581" style="enable-background:new 0 0 382.581 382.581;"
	 xml:space="preserve">
<g>
	<path d="M378.995,323.22c-17.748-9.18-33.048-22.644-50.796-31.824c-3.672-1.836-9.181-0.611-10.404,4.284
		c-1.224,6.732-2.448,13.464-2.448,20.196c-72.216,3.672-149.939,19.584-220.319-4.284c-52.02-17.748-51.408-72.216-52.632-119.34
		c-0.612-20.196,0-41.003,0.612-61.812c13.464-4.896,29.988-15.3,29.988-28.764c0-3.672-4.284-6.12-7.344-4.284
		c-5.508,3.06-8.568,8.568-12.852,12.852c-3.06,2.448-6.12,4.284-9.18,6.12c0.612-10.404,0.612-21.42,0.612-31.824
		c12.852-7.344,27.54-18.36,32.436-31.824c1.836-4.284-4.284-8.568-7.956-6.12c-5.508,4.284-9.792,9.792-15.3,14.076
		c-3.06,3.06-6.732,5.508-9.792,7.956c-0.612-12.24-1.224-24.48-2.448-36.72c-0.612-5.508-8.568-6.12-9.18,0
		c-0.612,12.852-1.224,25.092-1.836,37.944c-6.12-6.732-11.628-13.464-15.3-20.808c-1.836-4.284-9.18-1.224-7.956,3.06
		c4.284,12.852,14.076,22.032,20.808,33.66c0.612,0.612,1.224,1.224,1.836,1.836c-0.612,8.568-0.612,16.524-1.224,25.092
		c-6.732-5.508-14.688-10.404-20.808-17.136c-3.06-3.672-9.792,1.224-6.732,5.508c7.956,11.016,20.808,17.136,26.928,29.376
		c0,0,0,0.612,0.612,0.612c-0.612,26.928-0.612,53.244,0,80.171c1.836,40.393,4.896,80.784,41.004,104.652
		c33.66,22.032,81.396,22.644,119.952,22.644c42.228,0,83.844-5.508,125.46-7.956c0,6.12,0,12.24,0,18.36
		c0,7.344,9.792,7.956,12.239,2.448c6.732,1.836,14.076-1.836,20.196-3.672c9.792-3.061,20.196-6.732,29.988-11.017
		C382.667,334.237,385.115,326.281,378.995,323.22z"/>
</g>
<g>
</g>
<g>
</g>
<g>
</g>
<g>
</g>
<g>
</g>
<g>
</g>
<g>
</g>
<g>
</g>
<g>
</g>
<g>
</g>
<g>
</g>
<g>
</g>
<g>
</g>
<g>
</g>
<g>
</g>
</svg>
