<?xml version="1.0" encoding="iso-8859-1"?>
<!-- Generator: Adobe Illustrator 19.0.1, SVG Export Plug-In . SVG Version: 6.00 Build 0)  -->
<svg version="1.1" xmlns="http://www.w3.org/2000/svg" xmlns:xlink="http://www.w3.org/1999/xlink" x="0px" y="0px"
	 viewBox="0 0 128 128" style="enable-background:new 0 0 128 128;" xml:space="preserve">
<g id="_x31_9">
	<path style="fill:#262626;" d="M89.982,9.112C67.521-9.152,32.038,1.175,26.186,29.966c-2.998,14.749,3.065,31.761,8.383,45.352
		c6.79,17.352,15.766,33.752,23.028,50.903c0.523,1.234,1.455,1.727,2.427,1.709c0.91,0.215,1.897-0.041,2.7-1.048
		c11.822-14.825,22.362-31.279,30.218-48.538C102.091,58.246,110.332,25.658,89.982,9.112z M61.226,118.302
		c-10.531-23.7-24.113-46.66-28.333-72.528c-2.66-16.307,3.872-34.235,21.667-38.444c16.896-3.996,35.566,4.779,39.772,21.915
		C101.897,60.059,80.04,94.118,61.226,118.302z M61.278,18.409c-0.265,0.01-0.513,0.046-0.745,0.104
		c-0.042,0.007-0.081,0.004-0.123,0.012c-12.63,2.549-19.68,9.694-19.96,23.021C40.17,54.83,47.233,68.311,61.737,69.432
		c15.824,1.223,25.58-13.408,26.379-27.792C89.041,24.975,76.372,17.839,61.278,18.409z M81.586,41.64
		c-0.655,12.15-11.108,26.251-24.559,19.848c-9.144-4.353-12.081-16.743-9.244-26.008c2.116-6.91,7.481-9.199,13.867-10.546
		C72.794,24.616,82.27,28.956,81.586,41.64z"/>
</g>
<g id="Layer_1">
</g>
</svg>
