<?xml version="1.0" encoding="utf-8"?>
<!-- Generator: Adobe Illustrator 24.1.2, SVG Export Plug-In . SVG Version: 6.00 Build 0)  -->
<svg version="1.1" id="Layer_1" xmlns="http://www.w3.org/2000/svg" xmlns:xlink="http://www.w3.org/1999/xlink" x="0px" y="0px"
	 viewBox="0 0 1024 1024" style="enable-background:new 0 0 1024 1024;" xml:space="preserve">
<style type="text/css">
	.st0{fill:#E9F3FD;}
	.st1{fill:#CFF0FF;}
	.st2{fill:none;stroke:#063573;stroke-width:3.7729;stroke-miterlimit:10;}
	.st3{fill:none;stroke:#63C2E9;stroke-width:3.7729;stroke-miterlimit:10;}
	.st4{fill:#063573;}
	.st5{fill:none;stroke:#063573;stroke-width:3.7729;stroke-linecap:round;stroke-linejoin:round;stroke-miterlimit:10;}
	.st6{fill:none;stroke:#63C2E9;stroke-width:3.7729;stroke-linecap:round;stroke-linejoin:round;stroke-miterlimit:10;}
</style>
<g>
	<g>
		<path class="st0" d="M600.502,806.8c-8.461,3.909-12.401,14.3-9.432,22.637c2.646,7.43,9.671,10.119,10.375,10.375
			c7.469,2.718,17.063,0.198,21.694-7.546c4.827-8.073,2.206-18.388-4.716-23.58C613.28,804.829,606.233,804.152,600.502,806.8z"/>
		<path class="st0" d="M591.07,766.241c8.489,0.314,16.978,0.629,25.467,0.943c-0.072-31.979,0.513-65.015,1.886-99.038
			c2.426-60.09,7.065-117.094,13.205-170.722c-16.035,0.314-32.069,0.629-48.104,0.943"/>
	</g>
	<g>
		<path class="st1" d="M284.525,183.334c2.459-2.517,9.82,1.031,11.598,1.888c3.163,1.525,8.519,4.759,13.346,11.666
			c5.878-4.668,13.459-4.492,17.182-0.718c3.515,3.561,2.357,9.075,2.207,9.735c1.571,5.151,3.141,10.3,4.713,15.45
			c2.658,1.966,6.456,5.286,9.682,10.352c3.784,5.945,5.077,11.621,5.575,15.072c6.433,1.928,13.235-0.89,15.9-5.993
			c1.986-3.804,1.472-8.491-1.196-12.126c2.52-4.426,2.244-9.67-0.691-13.32c-3.61-4.491-9.457-4.347-10.126-4.319
			c6.762-0.756,12.583-4.789,14.974-10.455c2.308-5.467,0.544-10.381,0.024-11.688c10.03-11.577,8.6-19.494,8.24-21.125
			c-2.873-13.004-25.436-23.103-55.962-17.318c7.22-9.903,8.38-21.805,3.083-30.543c-1.049-1.73-5.985-9.804-15.937-10.531
			c-9.178-0.67-15.756,5.412-16.763,6.373c-0.971-1.124-4.55-4.979-10.842-5.953c-7.337-1.135-12.931,2.488-14.024,3.227
			c-0.976-1.793-3.131-5.044-7.031-6.649c-6.301-2.593-14.619,0.156-20.17,7.175c1.419-7.332-1.897-13.607-6.603-15.091
			c-4.263-1.345-8.24,1.69-8.489,1.886c-4.124,3.247-5.453,9.771-2.83,16.035c1.491-6.06-0.423-12.146-4.716-15.091
			c-6.106-4.188-14.725-0.449-18.864,4.716c-4.997,6.235-3.093,14.08-2.83,15.091c-1.242-0.813-8.383-5.336-15.091-2.83
			c-8.012,2.994-13.216,15.197-8.489,28.296c-4.693,0.453-11.397,1.603-18.864,4.716c-2.754,1.148-10.456,4.425-16.978,10.375
			c-12.468,11.376-22.293,34.045-13.459,51.63c1.669,3.322,5.129,8.703,12.516,13.452c-1.362,0.934-11.091,7.857-12.262,20.751
			c-1.034,11.392,5.355,19.271,6.603,20.751c-9.739,7.813-11.808,20.233-6.672,27.674c4.711,6.825,13.915,7.193,15.161,7.225
			c-3.965,10.518-0.322,22.269,8.489,28.296c7.742,5.296,18.221,5.317,26.41,0c-0.898-1.257-2.037-3.154-2.83-5.659
			c-0.983-3.108-1.008-5.814-0.889-7.517c4.796-5.095,5.137-8.39,4.662-10.404c-1.233-5.224-8.757-5.21-15.091-14.148
			c-1.608-2.268-3.919-5.619-2.83-8.489c1.054-2.777,4.34-2.597,5.659-5.659c1.344-3.119-1.349-4.966-0.943-8.489
			c0.644-5.583,8.47-10.134,15.091-11.319c6.706-1.2,7.372,1.913,16.035,1.886c9.404-0.029,20.454-3.733,21.694-9.432
			c0.477-2.194-0.469-4.828,0.943-5.659c0.89-0.524,1.864,0.071,4.731,0.195c0.76,0.033,1.667-0.005,2.815-0.195
			c0,0,4.499-0.747,8.403-3.583c9.782-7.105,7.726-24.017,7.632-24.714c-1.301-9.676-6.797-16.15-9.432-18.864
			c13.174,3.679,19.983,8.072,23.793,11.561c1.827,1.674,6.525,6.382,11.705,5.575c1.828-0.285,2.709-1.074,3.812-0.697
			c1.881,0.641,3.18,4.254,1.764,15.769c1.848-0.536,7.179-2.335,10.831-7.406c4.147-5.759,4.491-13.467,1.031-20.018
			c1.914-2.372,4.126-5.911,4.6-10.442C285.092,188.287,282.787,185.113,284.525,183.334z"/>
		<path class="st1" d="M174.169,338.022c-2.519,1.554-2.443,10.663,3.773,15.091c4.563,3.251,10.883,2.874,15.091-0.943
			C180.714,338.898,176.014,336.883,174.169,338.022z"/>
		<path class="st1" d="M188.317,348.397c-1.147,0.781,1.633,12.22,9.432,14.148c6.075,1.502,12.619-3.404,12.262-4.716
			c-0.263-0.965-4.112,0.552-9.432-0.943C192.525,354.623,189.264,347.752,188.317,348.397z"/>
		<path class="st0" d="M251.512,647.396c-1.793,0.448-10.558,2.446-22.451,5.46c-10.62,2.691-19.429,5.077-25.653,6.802
			c7.654,18.109,15.228,36.977,22.637,56.593c8.674,22.965,16.503,45.322,23.58,66.968c24.287,0.286,73.934-2.949,116.959-36.785
			c8.901-7,16.373-14.409,22.637-21.694c11.947-22.008,23.895-44.017,35.842-66.025c17.921-33.013,35.842-66.025,53.763-99.038
			c-29.142,17.767-54.208,29.924-71.684,37.729C351.903,622.076,302.476,634.662,251.512,647.396z"/>
		<path class="st0" d="M167.566,633.248c-2.827,1.58,2.968,29.321,24.524,46.218c8.246,6.464,16.643,9.651,22.637,11.319
			c-3.773-10.375-7.546-20.751-11.319-31.126c-3.709-1.563-8.693-3.956-14.148-7.546
			C174.174,642.184,169.371,632.239,167.566,633.248z"/>
		<path class="st0" d="M167.566,798.311c8.875-2.795,27.136-9.879,43.34-27.271c13.223-14.193,19.251-28.998,22.008-37.546
			c-7.294,6.288-22.363,17.512-44.518,22.266c-14.85,3.187-27.552,2.322-35.921,1.049
			C157.505,770.643,162.536,784.477,167.566,798.311z"/>
		<path class="st0" d="M765.565,394.615c1.238,3.589,5.09,13.171,15.091,19.808c5.41,3.59,10.676,5.029,14.148,5.659
			c4.087-5.974,8.175-11.947,12.262-17.921C793.232,399.645,779.399,397.13,765.565,394.615z"/>
	</g>
	<g>
		<path class="st2" d="M334.987,237.569c-2.317,1.335-9.04,4.802-17.921,3.773c-11.822-1.37-18.53-9.672-19.808-11.319"/>
		<path class="st2" d="M287.172,250.898c-0.767,3.294-2.085,11.016,1.026,19.9c4.625,13.206,15.561,19.053,17.949,20.26
			c-2.293,4.976-4.586,9.952-6.879,14.928"/>
		<path class="st2" d="M238.779,277.184c0.629,5.659,1.258,11.319,1.886,16.978"/>
		<path class="st2" d="M317.066,257.377c0.629,5.974,1.258,11.947,1.886,17.921"/>
		<path class="st2" d="M240.665,251.717c-2.821,3.408-7.75,8.501-15.245,12.634c-8.568,4.724-16.519,6.005-21.137,6.398"/>
		<path class="st2" d="M187.882,331.106c-1.935-6.279-0.878-11.612,1.769-12.891c3.459-1.67,8.819,3.971,9.957,5.169
			c5.269,5.545,8.416,14.538,5.786,16.986c-1.632,1.519-5.273,0.319-7.359-1.128c-4.273-2.963-5.976-9.699-3.734-16.789"/>
		<path class="st2" d="M179.454,305.02c-3.314,1.813-9.239,5.765-10.831,12.442c-3.137,13.158,13.163,25.953,17.686,29.503
			c12.402,9.735,25.938,11.677,33.43,12.056"/>
		<path class="st2" d="M352.548,261.385c5.695,23.699,6.264,43.418,5.785,56.588c-0.78,21.443-1.749,41.22-14.697,59.678
			c-3.976,5.668-10.843,15.201-23.409,20.504c-15.971,6.74-31.099,2.406-41.707-0.632c-27.418-7.854-45.287-25.971-53.977-36.357"/>
		<path class="st2" d="M338.221,383.873c3.377,8.469,6.754,16.939,10.131,25.408c2.562,6.425,5.124,12.85,7.686,19.275"/>
		<path class="st2" d="M243.495,379.995c9.548,12.457,15.348,23.882,18.864,32.069c7.341,17.092,6.701,24.662,5.659,29.24
			c-1.25,5.495-3.753,9.64-5.659,12.262"/>
		<path class="st3" d="M227.059,196.679c1.05,0.88,13.16,11.364,11.682,26.821c-0.32,3.345-1.917,13.613-10.94,19.594
			c-7.98,5.289-16.411,3.674-18.43,3.287c-1.719-0.329-10.956-2.099-11.507-6.581c-0.455-3.701,5.098-8.54,8.822-7.579
			c4.97,1.282,8.379,13.332,5.131,20.294c-4.125,8.841-20.193,12.052-39.763,6.716"/>
		<path class="st3" d="M171.245,264.629c-5.576-0.035-10.445,2.691-12.075,6.846c-3.147,8.017,7.032,18.117,10.743,17.04
			c2.172-0.63,3.446-5.472,1.813-7.831c-2.671-3.856-14.226-2.677-16.726,2.608c-2.104,4.447,1.688,12.893,11.092,17.917"/>
		<path class="st3" d="M229.681,143.847c2.765-2.103,10.728-7.534,21.137-6.397c15.184,1.658,26.923,16.347,27.6,29.612
			c0.088,1.724,0.608,11.931-5.678,15.465c-6.603,3.712-17.994-1.47-18.866-7.709c-0.702-5.021,5.35-11.139,11.18-11.566
			c9.883-0.723,21.925,14.707,20.241,28.485c-1.01,8.26-7.205,17.986-15.395,18.324c-5.017,0.207-11.165-3.094-11.857-7.457
			c-0.87-5.486,6.981-12.038,13.233-11.369c8.446,0.903,16.005,15.201,12.184,25.605c-2.244,6.11-7.736,9.035-9.826,10.011"/>
		<path class="st3" d="M333.596,203.954c0.232-1.716,0.996-8.616-2.838-12.069c-7.053-6.352-24.711,3.424-24.194,8.632
			c0.31,3.128,7.331,6.172,9.608,4.292c3.016-2.49-0.533-15.074-8.734-21.903c-5.299-4.413-11.221-5.324-14.062-5.563"/>
		<path class="st3" d="M334.515,151.801c3.303-1.748,11.447-5.433,21.334-3.43c11.772,2.386,26.485,12.934,25.351,26.447
			c-0.908,10.824-11.683,19.968-21.705,19.825c-5.065-0.072-11.766-2.543-12.359-6.242c-0.804-5.014,9.513-12.929,16.486-10.636
			c7.802,2.566,12.798,18.363,5.873,27.106c-4.164,5.257-12.022,7.187-19.783,4.842"/>
		<path class="st3" d="M365.629,212.505c0.529,0.622,6.266,7.572,3.886,14.697c-1.137,3.405-4.509,7.994-7.97,7.24
			c-3.161-0.689-5.807-5.707-4.345-8.422c0.869-1.614,3.188-2.409,5.11-2.037c5.044,0.977,10.24,10.56,6.987,17.523
			c-1.977,4.233-6.745,6.786-12.075,6.846"/>
		<path class="st3" d="M325.562,144.201c0.723-0.934,9.914-13.234,4.892-27.337c-0.546-1.534-5.594-15.059-17.403-16.416
			c-10.695-1.228-20.837,8.225-21.552,17.733c-0.542,7.2,4.286,14.931,6.791,14.555c2.565-0.385,4.234-9.501,2.075-17.074
			c-1.751-6.141-6.646-13.471-14.149-15.682c-14.339-4.225-30.37,12.549-28.365,20.449c1.069,4.215,7.676,7.494,11.158,5.705
			c6.541-3.361,6.284-26.784-3.515-31.092c-5.497-2.417-13.783,2.032-19.74,9.902"/>
		<path class="st3" d="M162.535,146.25c-10.907-4.892-18.3-3.537-21.727-2.506c-22.583,6.793-37.083,42.395-25.069,65.845
			c4.563,8.906,12.043,14.235,17.752,17.292c-1.78-0.557-10.488-3.088-17.076,1.732c-8.46,6.189-7.573,20.22-3.342,28.749
			c2.26,4.556,5.452,7.495,7.599,9.155c-2.237,0.949-8.253,3.886-10.678,10.35c-3.583,9.55,3.104,20.309,10.131,25.408
			c4.4,3.193,8.921,4.157,11.66,4.489"/>
		<path class="st3" d="M129.122,314.935c-0.244,1.392-2.088,12.956,5.48,21.17c7.56,8.205,21.412,9.702,32.492,2.276
			c-2.368,6.707-0.556,14.13,4.432,18.541c5.922,5.238,13.41,3.655,14.215,3.471c0.214,1.036,1.589,7.204,7.096,10.371
			c5.615,3.229,13.215,2.011,18.43-3.287"/>
		<path class="st3" d="M239.442,106.445c0.019-8.084-3.977-14.381-7.992-15.091c-4.631-0.82-11.791,5.351-12.338,16.089
			c-0.308,1.125-2.189,8.158-0.262,9.243c1.776,1.001,7.027-2.923,7.119-6.9c0.143-6.22-12.252-15.991-22.665-12.286
			c-7.392,2.63-11.038,11.073-10.787,17.502c0.146,3.751,1.69,8.656,3.494,8.761c1.909,0.112,4.846-5.115,3.516-8.51
			c-2.255-5.753-18.126-9.714-26.334-1.685c-5.236,5.121-6.379,14.167-2.883,22.474"/>
		<path class="st4" d="M345.557,402.272c-4.754,3.927-14.604,10.843-28.605,12.422c-28.785,3.245-49.227-18.987-51.543-21.588
			c8.661,4.149,16.265,6.339,21.77,7.566c8.995,2.005,15.78,3.518,24.281,1.488c7.106-1.697,12.209-5.104,14.98-6.988
			c5.394-3.669,9.138-7.699,11.53-10.69C340.499,390.411,343.028,396.342,345.557,402.272z"/>
		<path class="st2" d="M259.53,460.168c6.84,4.043,24.031,12.863,46.218,10.375c3.676-0.412,39.271-4.981,53.763-34.899
			c5.509-11.374,5.911-22.163,5.659-28.296"/>
		<path class="st2" d="M240.319,467.714c6.66,4.929,23.647,16.122,48.293,17.921c7.403,0.54,39.213,1.964,65.396-20.751
			c27.404-23.774,27.273-55.449,27.165-60.366"/>
		<path class="st2" d="M270.848,353.585c0.466-0.949,2.886-5.636,8.489-7.546c6.823-2.325,12.56,1.446,13.205,1.886"/>
		<path class="st2" d="M230.258,471.487c-11.231,4.324-32.313,12.418-59.36,22.637c-36.702,13.868-45.613,17-55.335,25.467
			c-15.275,13.302-21.104,29.798-28.171,61.309c-10.996,49.035-4.753,68.617-17.104,118.845
			c-4.419,17.972-9.527,32.331-13.079,41.502c20.199,3.797,38.45,6.903,54.329,9.432c45.66,7.273,56.838,7.411,68.415,5.659
			c13.479-2.04,30.229-7.056,48.293-18.864"/>
		<path class="st2" d="M141.929,766.713c11.665,26.558,23.176,54.87,34.207,84.889c10.305,28.042,19.298,55.143,27.165,81.117"/>
		<path class="st2" d="M155.807,620.515c4.386,5.918,10.889,13.426,20.122,20.751c10.03,7.957,19.809,12.94,27.165,16.035"/>
		<path class="st2" d="M178.947,587.502c16.157,42.949,29.683,80.031,40.244,109.413c26.825,74.632,39.499,110.173,50.305,159.403
			c3.492,15.91,5.927,29.171,7.483,38.2"/>
		<path class="st2" d="M213.155,653.527c18.406-3.572,46.115-9.348,79.482-17.921c51.195-13.154,87.036-22.699,129.283-43.859
			c23.529-11.785,41.876-23.606,54.078-32.069"/>
		<path class="st2" d="M254.813,780.861c17.812-2.064,41.176-6.623,66.968-16.978c19.603-7.87,35.652-17.098,48.104-25.467"/>
		<path class="st2" d="M384.977,402.632c1.333-0.298,4.13-0.932,7.634-1.794c29.337-7.214,39.42-18.025,69.502-25.736
			c3.192-0.818,5.023-1.288,7.279-1.71c15.612-2.921,43.352-2.037,83.006,29.711"/>
		<path class="st2" d="M703.784,478.089c16.664-32.384,33.327-64.767,49.99-97.151"/>
		<path class="st2" d="M802.822,411.121c-9.346,17.489-15.651,50.073-24.052,74.042c-11.25,32.099-15.563,50.902-24.052,74.042"/>
		<path class="st2" d="M763.207,363.017c1.214-8.579,4.323-20.129,13.205-29.24c8.483-8.702,17.439-10.26,28.296-15.091
			c11.037-4.911,25.702-13.945,40.558-32.069c0.951,2.362,2.177,6.351,1.886,11.319c-0.533,9.131-5.812,15.154-7.546,16.978"/>
		<path class="st2" d="M809.424,330.947c13.328-4.448,24.409-6.99,32.069-8.489c13.868-2.714,17.156-2.545,29.24-5.659
			c11.84-3.051,10.809-3.919,27.353-8.489c13.011-3.594,21.272-5.163,31.126-3.773c3.639,0.513,6.574,1.3,8.489,1.886"/>
		<path class="st2" d="M894.314,319.629c0,0,25.104-6.934,46.218-12.262c1.197-0.302,5.03-1.222,9.432,0
			c3.274,0.909,7.78,3.256,7.546,5.659c-0.049,0.503-0.37,1.661-2.83,2.83"/>
		<path class="st2" d="M873.563,326.231c0.303,4.196,0.273,9.721-0.943,16.035c-1.687,8.758-4.971,15.476-7.546,19.808"/>
		<path class="st2" d="M791.503,399.802c15.393,3.482,27.167,2.44,34.899,0.943c16.422-3.179,21.934-9.824,49.047-21.694
			c14.387-6.299,15.481-5.286,32.069-12.262c14.575-6.129,26.206-11.952,33.956-16.035c4.873-3.457,12.535-9.385,11.319-12.262
			c-1.202-2.843-10.568-1.51-18.864,0c-14.327,2.608-35.496,7.572-63.195,17.921"/>
		<path class="st2" d="M883.938,333.777c14.286-2.969,28.752-6.109,43.388-9.432c9.532-2.164,18.965-4.366,28.296-6.603
			c4.685-0.281,8.605,1.269,9.432,3.773c0.883,2.674-2.01,5.678-4.716,8.489c-3.457,3.59-7.106,5.559-9.432,6.603"/>
		<path class="st2" d="M494.862,471.015c2.515,12.576,5.03,25.152,7.546,37.729"/>
	</g>
	<g>
		<path class="st3" d="M592.013,769.071c0,0-9.432-42.445-12.262-139.596s3.773-131.107,3.773-131.107s16.035-4.716,48.104-3.773
			c0,0-18.864,207.507-15.091,274.476h-12.262"/>
		<path class="st3" d="M609.332,802.479c-6.189-0.529-12.251,7.101-14.534,13.323c-2.346,6.391-3.093,17.799,4.844,23.013
			c7.05,4.63,17.332,2,21.802-3.633C629.637,824.854,619.182,803.321,609.332,802.479z"/>
		<path class="st5" d="M267.582,919.709c110.973-192.953,221.947-385.905,332.92-578.858
			c116.733,192.145,233.466,384.29,350.199,576.435C722.995,918.094,495.288,918.901,267.582,919.709z"/>
		<path class="st6" d="M39.289,843.585c0.457,2.052,3.191,13.43,14.148,19.808c1.42,0.826,15.406,8.666,27.353,0.943
			c11.29-7.299,14.901-24.675,9.432-30.183c-2.883-2.904-8.878-3.087-11.79-0.472c-3.999,3.591-1.824,12.126,0.943,16.978
			c6.298,11.043,21.262,12.818,24.524,13.205c27.851,3.304,50.253-25.808,52.82-29.24"/>
		<path class="st6" d="M530.704,192.766c3.163,2.359,18.763,13.496,37.729,9.432c20.809-4.459,36.362-25.225,33.013-31.126
			c-2.525-4.449-17.519-3.488-22.637,3.773c-6.395,9.072,2.586,28.035,16.035,35.842c12.052,6.997,28.207,5.331,41.502-3.773"/>
		<path class="st6" d="M984.711,633.976c-5.065,0.441-31.874,3.082-44.788,17.25c-8.767,9.618-9.928,23.232-4.043,24.858
			c5.465,1.51,19.9-6.516,21.91-15.683c2.099-9.571-10-17.414-20.071-20.37c-16.534-4.853-39.664-0.072-56.613,12.388"/>
	</g>
</g>
</svg>
