<?xml version="1.0" encoding="utf-8"?>
<!-- Generator: Adobe Illustrator 24.0.1, SVG Export Plug-In . SVG Version: 6.00 Build 0)  -->
<svg version="1.1" id="Chef" xmlns="http://www.w3.org/2000/svg" xmlns:xlink="http://www.w3.org/1999/xlink" x="0px" y="0px"
	 viewBox="0 0 600 500" style="enable-background:new 0 0 600 500;" xml:space="preserve">
<style type="text/css">
	.st0{fill:none;}
	.st1{fill:#FFEAE9;}
	.st2{clip-path:url(#SVGID_2_);fill:#FFFFFF;}
	.st3{clip-path:url(#SVGID_2_);fill:#FFF7F6;}
	.st4{clip-path:url(#SVGID_2_);fill:none;stroke:#FFEAE9;stroke-width:2;stroke-miterlimit:10;}
	.st5{clip-path:url(#SVGID_2_);fill:url(#SVGID_3_);}
	.st6{clip-path:url(#SVGID_2_);fill:#FFEAE9;}
	.st7{clip-path:url(#SVGID_2_);fill:#FCFFFF;}
	.st8{clip-path:url(#SVGID_2_);fill:#FF5876;}
	.st9{clip-path:url(#SVGID_2_);fill:#000060;}
	.st10{clip-path:url(#SVGID_2_);fill:#00CBBF;}
	.st11{clip-path:url(#SVGID_2_);fill:#FC857B;}
	.st12{clip-path:url(#SVGID_2_);fill:#FDB2AC;}
	.st13{clip-path:url(#SVGID_2_);fill:#FF385C;}
	.st14{clip-path:url(#SVGID_2_);fill:#111A12;}
	.st15{clip-path:url(#SVGID_2_);fill:none;}
	.st16{clip-path:url(#SVGID_2_);fill:#E0D4D3;}
	.st17{clip-path:url(#SVGID_2_);fill:none;stroke:#00CBBF;stroke-miterlimit:10;}
	.st18{clip-path:url(#SVGID_2_);fill:none;stroke:#FCFFFF;stroke-width:2;stroke-miterlimit:10;}
	.st19{clip-path:url(#SVGID_2_);fill:none;stroke:#000060;stroke-miterlimit:10;}
</style>
<pattern  width="48" height="48" patternUnits="userSpaceOnUse" id="_x36__dpi_30_x25__2" viewBox="3.6 -51.6 48 48" style="overflow:visible;">
	<g>
		<rect x="3.6" y="-51.6" class="st0" width="48" height="48"/>
		<g>
			<circle class="st1" cx="27.6" cy="-3.6" r="3.6"/>
			<circle class="st1" cx="51.6" cy="-3.6" r="3.6"/>
			<circle class="st1" cx="27.6" cy="-27.6" r="3.6"/>
			<circle class="st1" cx="51.6" cy="-27.6" r="3.6"/>
			<circle class="st1" cx="39.6" cy="-15.6" r="3.6"/>
			<circle class="st1" cx="15.6" cy="-15.6" r="3.6"/>
			<circle class="st1" cx="39.6" cy="-39.6" r="3.6"/>
			<circle class="st1" cx="15.6" cy="-39.6" r="3.6"/>
		</g>
		<g>
			<circle class="st1" cx="3.6" cy="-3.6" r="3.6"/>
			<circle class="st1" cx="3.6" cy="-27.6" r="3.6"/>
		</g>
		<g>
			<circle class="st1" cx="27.6" cy="-51.6" r="3.6"/>
			<circle class="st1" cx="51.6" cy="-51.6" r="3.6"/>
		</g>
		<g>
			<circle class="st1" cx="3.6" cy="-51.6" r="3.6"/>
		</g>
	</g>
</pattern>
<g>
	<defs>
		<rect id="SVGID_1_" width="600" height="500"/>
	</defs>
	<clipPath id="SVGID_2_">
		<use xlink:href="#SVGID_1_"  style="overflow:visible;"/>
	</clipPath>
	<rect class="st2" width="600" height="500"/>
	<ellipse class="st3" cx="302.8" cy="458.7" rx="246.1" ry="9.5"/>
	<circle class="st4" cx="295.9" cy="211.3" r="152.4"/>
	<pattern  id="SVGID_3_" xlink:href="#_x36__dpi_30_x25__2" patternTransform="matrix(0.6633 0 0 0.6633 -2646.8232 -2533.2827)">
	</pattern>
	<rect x="439.4" y="208" class="st5" width="105.6" height="105.6"/>
	<circle class="st6" cx="259.1" cy="199.1" r="152.4"/>
	<path class="st7" d="M278.2,144.3c-2.4,4.3-6.5,7.5-10.8,10c-5.6,3.5-11.6,6.2-17.9,8.3c-5.6,1.9-11.4,3.1-17.3,3.8
		c-5.2,0.6-10.9,0.5-15.2-2.5c-3.3-2.4-5.2-6.3-6.9-10c-2.2-4.8-4.1-10.5-2.8-15.6c2.5,0.4,5.1,0.7,7.7,0.9
		c21.3,1.9,43.1-1.4,62.9-9.6C281.2,133.5,280.6,140,278.2,144.3z"/>
	<path class="st8" d="M249.4,439.2c-1.3,6.3-4.1,12.4-8.7,16.9c-4.7,4.6-12.2,7.3-18.1,4.4c-0.7-0.4-1.4-0.8-2-1.3
		c-3.7-2.8-5.7-7.8-5.8-12.5c-0.2-5.6,1.8-11,3.9-16.1c2.2-5.1,4.6-10.3,5.5-15.8c0.9-5.5,0.1-11.6-3.6-15.8
		c0.5-1.4,1.6-2.6,1.6-4.1c0-3.6,0.9-7.3,2.9-10.2c2-3,5.3-5.2,8.9-5.6c1.4-0.2,3,0,4.5,0.4c2.3,0.7,4.3,2,4.9,4.1
		c3.7,11.8,6.1,24.1,6.9,36.4C250.6,426.4,250.7,432.9,249.4,439.2z"/>
	<path class="st7" d="M249.4,439.2c-1.3,6.3-4.1,12.4-8.7,16.9c-4.7,4.6-12.2,7.3-18.1,4.4c-0.7-0.4-1.4-0.8-2-1.3
		c4.3,0.6,8.9-0.4,12.7-2.7c5.5-3.4,9.3-9.3,11.1-15.6c1.9-6.3,2-12.9,1.8-19.4c-0.5-13.1-2.8-26.1-6.8-38.5c-0.4-1.2-0.8-2.3-1-3.5
		c2.3,0.7,4.3,2,4.9,4.1c3.7,11.8,6.1,24.1,6.9,36.4C250.6,426.4,250.7,432.9,249.4,439.2z"/>
	<path class="st9" d="M187.5,379.8c12.4,3.3,24.9,6.7,37.3,10c1.9,2.6,2,5.2-0.5,7.7c-19.8,14.5-43.7,22.2-68.2,24.6
		c-5.3-9.7-4.8-22.8,1.7-31.8C164.4,381.4,176.8,376.9,187.5,379.8z"/>
	<path class="st10" d="M259.4,296.9c-6.8,16.2-15,31.8-24.4,46.6c-12.1,19.2-26.2,37.1-42,53.3c-7.7,7.9-15.9,15.5-25.3,21.4
		c-4.8,3-11,5.6-15.8,2.5c-2.6-1.6-4.1-4.7-4.5-7.7c-0.4-3,0-6.2,0.6-9.2c6.2-33.1,22.3-63,40.5-91.6c5.5-8.7,11.3-17.3,17-25.8
		c5.5-8.2,19.7-6.8,29.4-4.9C244.7,283.4,253.6,288.9,259.4,296.9z"/>
	<path class="st9" d="M264.6,314.7c-9.3,1.1-18.8,0.6-28-1.5c-1.6-0.4-3.1-0.8-4.7-1.2c-3.6-1-7.1-2.3-10.5-3.8
		c-1.3-0.6-2.5-1.1-3.7-1.8c-8-4.1-15.4-9.5-21.7-16c-1.6-1.6-3-3.3-4.5-5c-3.1-3.7-5.9-7.8-8.3-12c2.3-10.2,11.1-19.2,21-22.4
		c9.9-3.2,20.9-1.9,30.4,2.5c3.6,1.7,7,3.8,10.1,6.1c5.1,3.9,9.7,8.5,13.7,13.6c4.5,5.7,8.5,12,10.2,19.1
		C270.4,299.3,269,308.9,264.6,314.7z"/>
	<path class="st10" d="M223.8,240.7c0.2,5.5-3.1,10.5-6.5,14.9c-15.2,19.3-35.3,34.3-56.9,46.1c-21.5,11.8-44.5,20.6-67.5,29.4
		c-3.7-4.8-6.4-13.4-2.2-17.8c26.9-28.7,53.5-57.1,80.4-85.8c3.7-4,10.3-4.7,15.6-3.5s10.2,3.9,15,6.5
		C208,234,217.4,237.3,223.8,240.7z"/>
	<path class="st6" d="M106.7,240.9c-7.4,19.8-12.2,40.6-14,61.6c-8.3,4.1-17.5,4.8-25.8,1.3c-1-0.4-2-0.9-3-1.5
		c-9.5-21.4-9.6-46.7-0.5-68.3c2.8-6.5,6.4-12.8,11.7-17.5c5.3-4.7,12.4-7.7,19.4-7c7,0.7,13.8,5.7,15.5,12.6
		c0.2,0.7,0.3,1.4,0.4,2.1C111,229.8,108.7,235.5,106.7,240.9z"/>
	<path class="st6" d="M92.4,330.2c-2.9,5.7-8.2,10.1-14.3,12c-0.6,0.2-1.3,0.3-1.9,0.5c-4,0.8-8.3,0.2-11-2.6
		c-3.1-3.3-3.1-8.3-3-12.8c0.2-5.8,0.6-12,0.8-17.8c1.3,0.6,2.6,1.1,3.9,1.5c9.2,3.2,19.5,3.5,28.8,0.6
		C97.8,317.6,95.3,324.5,92.4,330.2z"/>
	<path class="st8" d="M117,253.3c-2.1,6-6.2,11.2-8.4,17.2c-6.6,17.7,3.9,38.7-4,55.9c-3.6,7.8-11,13.6-19.3,15.6
		c-2.8,0.7-5.8,1-8.7,0.7c-0.1,0-0.3,0-0.4,0c0.7-0.1,1.3-0.3,1.9-0.5c6.1-1.9,11.4-6.3,14.3-12c2.9-5.7,5.4-12.6,3.3-18.6
		c0,0,2-1,2.4-0.6c0.4,0.4-2.7-9.3-2.7-9.3l-2.7,0.8c1.9-21,6.6-41.8,14-61.6c2-5.4,4.3-11.1,3.7-16.7c1.3,1.3,2.4,2.8,3.4,4.3
		C118.4,235.8,119.8,245.2,117,253.3z"/>
	<path class="st11" d="M98.1,310.9c-0.4-0.4-2.4,0.6-2.4,0.6c-9.3,2.8-19.6,2.6-28.8-0.6v-7.2c8.3,3.5,17.5,2.8,25.8-1.3l2.7-0.8
		C95.4,301.6,98.5,311.3,98.1,310.9z"/>
	<path class="st7" d="M108.9,245c-6,16.9-12.1,34.4-10.9,52.3c0.4,6.2,1.7,12.4,1.4,18.6c-0.5,9.7-5.4,19-12.9,25.2
		c-0.4,0.3-0.7,0.6-1.1,0.8c-2.8,0.7-5.8,1-8.7,0.7c-0.1,0-0.3,0-0.4,0c0.7-0.1,1.3-0.3,1.9-0.5c6.1-1.9,11.4-6.3,14.3-12
		c2.9-5.7,5.4-12.6,3.3-18.6c0,0,2-1,2.4-0.6c0.4,0.4-2.7-9.3-2.7-9.3l-2.7,0.8c1.9-21,6.6-41.8,14-61.6c2-5.4,4.3-11.1,3.7-16.7
		c1.3,1.3,2.4,2.8,3.4,4.3C112.8,234.2,110.8,239.6,108.9,245z"/>
	<path class="st8" d="M422.5,83.5c-21.6,23.6-52.6,38.3-84.5,40.1c-14.4,0.8-29.1-0.9-43.3,1.4c-14.3,2.3-28.9,9.7-34.7,23
		c22.4,4.8,42.9,15.1,60.7,29.5c13.1,10.6,32.4,11.5,49.3,10.7c16.9-0.8,34.4-9.1,41.4-24.4c5.9-13,3.3-28.1,2.3-42.3
		C412.7,107.1,411.4,92.4,422.5,83.5z"/>
	<path class="st12" d="M414,246.4c2.8,4.4,9.3,11.1,14.2,13.2c4,1.7,8.7,1.8,12.8,0.1c4-1.6,7.4-5,9-9c0.5-1.3-0.8-3-1.9-3.9
		c-1.1-0.9-2.5-1.4-3.8-1.9c-7.8-2.8-15.7-5.6-23.5-8.4c-1.3-0.5-2.8-1-4.1-0.6c-1.9,0.5-3,2.4-3.3,4.3
		C413.1,242.1,412.9,244.8,414,246.4z"/>
	<path class="st7" d="M425.1,232.1c-1,5.5-4.5,9.8-8.6,13.6c-4.1,3.8-14.8,6.5-14.7,6.1c-15.5-4.2-31.4-8.6-44.5-18
		c-10.8-7.7-19.1-18.4-27.8-28.4c-6.1-7-12.5-13.7-18.4-20.8c-4-4.7-7.7-9.5-11-14.6c-2.9-4.5-5.5-9.3-7.6-14.3
		c-1.4-3.3,0.9-7.8,3.3-10.6c0.2-0.2,0.4-0.4,0.6-0.6c2.7-2.8,6.5-3.7,10.3-3.7c3.3,4.4,6.7,8.9,10.1,13.3
		c11.5,14.8,24,28.9,39.8,38.9c11.2,7.1,23.6,11.8,35.6,17.4C404.3,215.8,416.2,222.3,425.1,232.1z"/>
	<path class="st6" d="M299.5,440.6c-0.4-3.4-4.1-6-7.5-5.2s-5.5,4.7-4.4,8c-2.7,0.3-4.6,4.4-3.2,6.8c1.3,2.3,5.2,2.6,6.8,0.5
		c1.4,3.3,4.8,6.1,8.3,5.3c3.5-0.8,6.2-4.2,6.2-7.8C305.6,444.6,303,441.3,299.5,440.6z"/>
	<path class="st6" d="M337.8,445.7c1.1-1.9,0.3-4.5-1.5-5.8c-1.8-1.2-4.3-1.1-6.1,0.2s-2.7,3.5-2.6,5.7c-1.5,0.6-2.2,3.1-1.1,4.4
		c1,1.3,3.4,1.2,4.3-0.2c0.9,2.3,4.3,3.7,6.3,2.2C339,450.8,339.8,447.2,337.8,445.7z"/>
	<path class="st6" d="M397.6,449.1c0.9-0.1,1.8-0.6,2.4-1.4c0.6-0.8,0.9-1.7,1-2.6c0.3-3-3.2-5.3-5.5-3
		C393.4,444.2,393.8,449.4,397.6,449.1z"/>
	<path class="st7" d="M292.3,300.6c-4.4,24.9-6.1,52.2,6.7,74c-38.4-8.4-70.3-40.6-77.7-78.6c-2.1-11-2.4-22.4-4.4-33.4
		c-2-11.1-6.1-22.3-14.4-30c-8.3-7.7-21.7-10.9-31.6-5.2c3-2.8,6.3-4.7,10.4-4.7c4.2,0,8.2,1.1,12.2,2.1c2.4,0.6,4.8,1.3,7.1,1.9
		c17.7,4.6,36-6,39.7-23.6c2.7-12.6,2.5-29.1-1.3-41.2c2-5.3,6.7-9.8,11.7-12.7c0.7-0.4,1.3-0.7,2-1.1c4.5-2.2,9.4-3.4,14.4-4.2
		c8.2-1.2,16.5-1.2,24.7,0.1c1.3,0.2,2.6,0.5,3.8,0.9c1,0.3,2,0.8,2.8,1.4c1.9,1.4,2.1,4.7,1.5,7c1.9,3,3.5,6.2,4.9,9.4
		c3,7,5,14.3,6.1,21.8c2,13.9,1.2,28.4-1.2,42.3C305.6,251.8,296.8,275.8,292.3,300.6z"/>
	<path class="st7" d="M250.7,171.6c-0.1,0-0.1,0.1-0.2,0.1c-6.7,4.2-13.7,10.1-21.2,11.1c-1.5,0.2-3,0.2-4.6-0.1
		c-13.5-2.4-26.6-7.7-37.9-15.6c-6-4.2-12.1-10.4-11.1-17.6c0.7-4.6,4.2-8.4,8.4-10.3s9-2.3,13.6-2.1
		C219.9,138.2,240.9,151.9,250.7,171.6z"/>
	<path class="st12" d="M270.6,193.7c-1.1,0.6-2.4,0-3.5-0.6c-3.7-2-7.5-4.1-11.2-6.1c1.1,1.1,0.8,3.2,0.2,4.7
		c-0.7,1.5-2.2,2.5-3.8,2.6c-1.6,0.1-3.2-0.6-4.3-1.8c0.7,1.6,0.5,3.5-0.5,4.9s-2.8,2.3-4.6,2.1c-1.7-0.2-3.3-1.3-4.1-2.9
		c0.3,1.6-0.7,3.4-2.1,4.1c-1.4,0.7-3.3,0.3-4.3-1c-1.1-1.4-1.1-3.4-1.1-5.1c0-4-0.6-8-1.8-11.8c7.5-0.9,14.5-6.9,21.2-11.1
		c7.4,4.3,14,10,19.5,16.7c0.7,0.8,1.3,1.6,1.5,2.6C271.8,192,271.5,193.2,270.6,193.7z"/>
	<path class="st9" d="M316.8,154c-0.4,1.3-1,2.4-1.8,3.5c-2.2,3-6.2,5.1-10,5.2c-1.7,0.1-3.4-0.3-4.9-1.1c0.8,4.1,2.8,7.9,5.7,10.8
		c-2-0.7-3.9-1.6-5.7-2.6c-4.5-2.5-8.3-5.9-11-10.3c-3.8,0.5-7.6,0-10.8-2.1c-7.9,4.7-17.8,5.8-26.5,3.1c4.2-1.4,7.8-4.1,10.4-7.7
		c-3.5-0.5-6.7-2.3-9.2-4.8c4.5-2.2,9.4-3.4,14.4-4.2c8.2-1.2,16.5-1.2,24.7,0.1c1.3,0.2,2.6,0.5,3.8,0.9c0.2-0.2,0.4-0.4,0.6-0.6
		c2.7-2.8,6.5-3.7,10.3-3.7C310.1,145.1,313.4,149.6,316.8,154z"/>
	<path class="st13" d="M266.1,142.2c-0.9,0.6-1.8,1.3-2.5,2.1c-1.7,1.7-3.1,3.7-4.5,5.6c-1.4-0.6-2.7-1.4-3.8-2.4
		c-3.2-3.2-3.5-8.5-1.5-12.6c1.5-3,4-5.4,6.8-7.3c-0.8,4.2,0.5,8.8,3.3,12.2C264.5,140.7,265.3,141.5,266.1,142.2z"/>
	<path class="st13" d="M314,154.9c-2.4,4-7.2,5.9-11.9,5.6c-0.8-2.4-1.1-4.9-1.7-7.3c-0.6-2.7-1.4-5.5-3-7.7
		c-0.1-0.1-0.2-0.3-0.4-0.5c1-0.5,2-1.2,2.8-2c2.9-2.8,4-7,3.8-11c5,2,9.2,6.3,11,11.4C316,147.1,316,151.5,314,154.9z"/>
	<path class="st8" d="M276.4,155.4c-0.1,0.1-0.2,0.1-0.3,0.2c-1.3,0.9-2.9,1.3-4.4,1.7c-7.1,1.6-14.6,1.8-21.8,0.6
		c3.1-1,5.6-3.4,7.6-5.9c0.5-0.7,1-1.3,1.5-2c1.5-1.9,2.8-3.9,4.5-5.6c0.8-0.8,1.6-1.5,2.5-2.1c2.3,1.9,5,3.3,7.8,4.2
		c0,0.1-0.1,0.2-0.1,0.3c-0.6,1.7-0.7,3.7-0.1,5.4c0.3,0.8,0.7,1.5,1.2,2.1C275.4,154.7,275.9,155.1,276.4,155.4z"/>
	<path class="st8" d="M295.9,150.1c0,1.1-0.2,2.2-0.7,3.2c-0.8,1.5-2.1,2.5-3.6,3.2c0,0,0,0,0,0c-0.7,0.3-1.4,0.5-2.2,0.6
		c-0.6,0.1-1.2,0.2-1.8,0.2c-1.8,0.1-3.6-0.2-5.4-0.4c-2-0.3-4.1-0.6-5.8-1.6c-0.5-0.3-1-0.7-1.5-1.2c-0.6-0.6-1-1.3-1.2-2.1
		c-0.6-1.7-0.5-3.7,0.1-5.4c0-0.1,0.1-0.2,0.1-0.3c0.4,0.1,0.8,0.2,1.3,0.3c4.4,1.1,9,1.1,13.5,0.6c2.1-0.3,4.2-0.6,6.2-1.4
		c0,0.1,0.1,0.2,0.1,0.2c0.2,0.3,0.3,0.6,0.4,1c0.1,0.2,0.2,0.5,0.2,0.7c0,0.1,0.1,0.3,0.1,0.4c0,0.1,0,0.3,0.1,0.4
		c0,0.2,0.1,0.3,0.1,0.5C295.9,149.5,295.9,149.8,295.9,150.1z"/>
	<path class="st8" d="M307.5,167.7c-5.6,0.7-11.5-1.1-15.8-4.8c-1-0.9-2.3-2.6-3.5-4.6c-0.2-0.3-0.4-0.7-0.6-1.1
		c0.6,0,1.2-0.1,1.8-0.2c0.7-0.1,1.5-0.3,2.2-0.6c0,0,0,0,0,0c1.5-0.7,2.9-1.7,3.6-3.2c0.5-1,0.8-2.1,0.7-3.2c0-0.3,0-0.6-0.1-0.9
		c0-0.2,0-0.4-0.1-0.5c0-0.1,0-0.3-0.1-0.4c0-0.2-0.1-0.3-0.1-0.4c-0.1-0.2-0.1-0.5-0.2-0.7c-0.1-0.3-0.3-0.6-0.4-1
		c0-0.1-0.1-0.2-0.1-0.2c0.8-0.3,1.5-0.6,2.2-1c0.1,0.1,0.3,0.3,0.4,0.5c1.7,2.2,2.5,5,3,7.7c0.5,2.4,0.9,4.9,1.7,7.3
		c0.1,0.3,0.2,0.6,0.3,0.8C303.3,164,305,166.5,307.5,167.7z"/>
	<path class="st9" d="M428.8,239.5c-2,0.6-4,1.2-5.6,2.5c-1.6,1.3-2.7,3.4-2.3,5.4c0.7,3.1,4.4,4.3,7.5,4.9
		c27.3,4.8,55.1-2.8,81.5-11c2.6-0.8,5.3-1.7,7.5-3.3s3.8-4.3,3.5-7.1c-1-7.5-13-5-17.7-4.7c-8.4,0.5-16.8,1.3-25.1,2.4
		C461.4,231,444.9,234.6,428.8,239.5z"/>
	<path class="st12" d="M430.1,234.3c1.3,0.7,2.5,1.5,3.3,2.7c4.5,6.3-5.6,8.5-9.6,5C418.5,237.3,424.1,231,430.1,234.3z"/>
	<path class="st8" d="M504.4,230.6c0-8.5-4.5-16.7-11.2-21.8c-6.7-5.2-15.5-7.4-23.9-6.8c-9.6,0.7-18.8,4.9-25.5,11.7
		c-6.7,6.8-10.9,16.1-11.5,25.7c11.6,6.1,26.5,8.5,39.5,6.7C484.8,244.4,494.8,239.5,504.4,230.6z"/>
	<path class="st9" d="M466.4,199.4c0.9-0.5,2.2-0.3,2.9,0.4s0.9,2,0.3,2.9c-0.1,0.2-0.3,0.3-0.4,0.5c-0.5,0.5-1.4,1-2.2,1
		c-0.7,0-0.9-0.6-1.3-1.1C464.9,201.8,464.9,200.2,466.4,199.4z"/>
	<path class="st12" d="M304.6,119.6c0.1,4-0.7,8.2-2.3,11.9c-1.9,4.5-5.1,8.4-9.3,10.7c-0.2,0.1-0.4,0.2-0.6,0.3
		c-0.4,0.2-0.8,0.4-1.3,0.6c-1.8,0.7-3.7,1.1-5.5,1.2c-2.6,0.1-5.1-0.3-7.6-1c-0.6-0.2-1.3-0.4-1.9-0.7c-1.6-0.6-3.1-1.5-4.5-2.4
		c-2.6-1.7-4.9-3.8-6.8-6.1c-1.5-1.9-2.8-3.8-4-5.9c-0.1-0.1-0.2-0.3-0.2-0.4c-3.5-6.5-5.5-13.8-7.4-20.9c-0.3-1-0.3-1.9-0.3-2.9
		c0-0.1,0-0.2,0-0.3v0c0-0.2,0-0.3,0.1-0.5c4.4,0.8,8.9,1.2,13.3,0c5.2-1.4,10-5.6,10.5-11c2.9,2.1,6.8,2.4,10.1,1.3
		c0.8-0.3,1.5-0.6,2.1-1.2c0.6-0.6,1-1.4,0.8-2.2c0.3,2,2.3,3.3,4.1,4.1c1,0.4,2.2,0.5,3.3,0.3c0.1,0,0.2,0,0.3,0
		c0.2,0.5,0.5,1,0.7,1.6c3.1,7,5.8,14.2,6.4,21.7C304.5,118.3,304.5,118.9,304.6,119.6z"/>
	<path class="st2" d="M293.4,113.8c-2.8,5.3-5.6,10.7-8.5,16c1.7,2.8,5.5,4.1,8.1,2.2c2.6-1.9,3.7-5.5,3.5-8.8
		C296.3,119.9,294.9,116.7,293.4,113.8z"/>
	<path class="st11" d="M277.6,121c0.4,0.4,0.9,0.8,1.5,0.9c0.6,0.2,1.2,0.1,1.7-0.3c0.8-0.8,0.3-2.2-0.2-3.2
		c-0.9-2.1-1.4-4.4-1.3-6.8c0.1-1.8,0.4-3.6-0.3-5.2c-0.7-1.4-3.2-3-4.7-2c-1.2,0.8-1.3,3.7-1.4,5.1
		C272.6,113.8,274.3,118.2,277.6,121z"/>
	<path class="st14" d="M296.6,100.6c-0.4-1.1-1.8-1.5-2.8-1.7c-1.2-0.2-2.4-0.1-3.6,0.1c-2.2,0.4-4,1.5-5.5,3.2
		c-0.6,0.7,0.1,1.8,1,1.3c1.5-0.9,3.4-1.4,5.1-1.7c0,0,0,0,0,0c0,0,0,0,0,0c0.1,0,0.2,0,0.3,0c0.2,0,0.5,0,0.7,0c0.5,0,0.9,0,1.4,0
		c0.5,0,0.9,0.1,1.3,0.1c0.5,0,1.1,0,1.5-0.3C296.5,101.4,296.7,101,296.6,100.6z"/>
	<path class="st14" d="M268.1,107.6c-0.8-0.2-1.6-0.4-2.4-0.4c-0.8,0-1.6,0.3-2.4,0.5c-0.8,0.3-1.5,0.7-2.2,1.2
		c-0.7,0.5-1.4,1.2-1.8,2c-0.2,0.5-0.2,1,0.2,1.3c0.3,0.3,0.9,0.5,1.3,0.2c0.2-0.1,0.4-0.3,0.5-0.4c0,0,0.1-0.1,0.1-0.1
		c0,0,0.1-0.1,0.1-0.1c0.2-0.1,0.4-0.3,0.6-0.5c0.1,0,0.1-0.1,0.2-0.1c0,0,0,0,0,0c0,0,0,0,0,0c0.6-0.4,1.1-0.7,1.8-1c0,0,0,0,0,0
		c0.1,0,0.1-0.1,0.2-0.1c0.2-0.1,0.3-0.1,0.5-0.2c0.3-0.1,0.7-0.2,1-0.2c0.3-0.1,0.7-0.2,1-0.2c0,0,0,0,0,0c0,0,0,0,0.1,0
		c0.1,0,0.2,0,0.2,0c0.2,0,0.4,0,0.6,0C268.9,109.5,269.1,107.9,268.1,107.6z"/>
	<path class="st9" d="M297.4,94.3c-0.1,0-0.2,0-0.3,0c-1.1,0.2-2.3,0.1-3.3-0.3c-1.8-0.8-3.7-2.1-4.1-4.1c0.2,0.8-0.2,1.7-0.8,2.2
		c-0.6,0.6-1.3,0.9-2.1,1.2c-3.3,1.1-7.3,0.7-10.1-1.3c-0.5,5.4-5.3,9.6-10.5,11c-4.3,1.2-8.8,0.8-13.3,0c1-7.4,10.3-14.2,17.8-16.3
		c6.7-1.9,15.8-2.5,21.5,0.9c1.8,1.1,3.3,2.6,4.2,4.6c0,0.1,0.1,0.2,0.2,0.3c0.1,0.1,0.1,0.3,0.2,0.4l0,0
		C297,93.5,297.2,93.9,297.4,94.3z"/>
	<path class="st2" d="M305.1,61.8c0,1.7-0.3,3.4-0.9,5c-1.6,3.9-5.1,7.1-9.3,7.7c-0.8,0.1-1.6,0.2-2.4,0.1
		c-3.9-0.2-7.6-2.2-10.9-4.6c-3.1,4-7.2,7.1-11.9,9c-6.7,2.7-14.3,2.6-21,0c-0.8,2.8-2.5,5.3-4.8,7.1c0,0,0,0-0.1,0
		c-3.6,2.7-8.6,3.4-12.7,1.7c-3.9-1.6-7-5.4-7.6-9.6c0-0.2-0.1-0.4-0.1-0.6c-0.4-4.9,2.4-9.8,6.4-12.7c2.6-1.9,5.7-3.1,8.8-3.8
		c-2.8-7.3-0.8-16.2,4.7-21.8c6.1-6.1,15.8-8.1,24-5.4c7.1,2.3,13,7.8,16.3,14.5c3.7-1.2,7.8-1.3,11.5,0
		C300.6,50.5,305,55.9,305.1,61.8z"/>
	<path class="st2" d="M296.8,93c-0.1-0.1-0.1-0.3-0.2-0.4c0-0.1-0.1-0.2-0.2-0.3c-0.9-2-2.3-3.5-4.2-4.6c-5.7-3.4-14.8-2.8-21.5-0.9
		c-7.5,2.1-16.9,8.9-17.8,16.3c0,0.2,0,0.3-0.1,0.5c-0.1-0.2-0.2-0.3-0.3-0.5c0,0,0-0.1,0-0.1c-2.1-4.1-4.3-8.2-6.4-12.4
		c-0.8-1.5-1.5-3-2.3-4.4c2.3-1.8,4-4.3,4.8-7.1c6.7,2.6,14.4,2.6,21,0c4.7-1.9,8.8-5,11.9-9c3.3,2.4,7,4.4,10.9,4.6
		c0.2,0.8,0.4,1.6,0.6,2.4c1.2,5.2,2.4,10.4,3.6,15.6C296.7,92.8,296.7,92.9,296.8,93z"/>
	<path class="st9" d="M315.4,112.9c-2.2,3-6,4.7-9.7,4.7c-0.4,0-0.8,0-1.2,0c-0.6-8.1-3.8-15.8-7.1-23.3c-0.2-0.5-0.4-0.9-0.6-1.3
		l0,0c0-0.1,0-0.2-0.1-0.4c0.4,0.2,0.7,0.4,1.1,0.6c0.4,0.2,0.7,0.4,1.1,0.5c2.9,1.2,6,1.8,9,2.7c3.4,1.1,6.8,2.8,8.5,5.9
		C318.2,105.6,317.7,109.9,315.4,112.9z"/>
	<path class="st9" d="M260.8,128.1c-2.8,1-5.7,1.6-8.7,1.4c-4.6-0.3-9.3-3.4-10-7.9c-0.7-4.4,2.4-8.5,5.4-11.8
		c1.9-2.1,3.9-4.3,5-6.8c0,0,0,0,0.1,0c0.1,0.2,0.2,0.3,0.3,0.5v0c-0.1,1.1,0,2.1,0.3,3.2C255.1,114,257.2,121.5,260.8,128.1z"/>
	<path class="st13" d="M276.4,155.4c-0.1,0.1-0.2,0.1-0.3,0.2c-0.7-0.1-1.5-0.4-2-0.9c-0.6-0.6-0.9-1.7-0.6-2.5
		c-1.5,0.9-3.1,1.4-4.8,1.7c1.5-0.9,3-2.6,3.7-4.2c-1.8,1.3-3.8,1.8-5.9,1.9c3-1.4,5.5-3.8,7-6.7c0.4-0.7,0.7-1.5,1.3-2.1
		c0.2-0.2,0.5-0.4,0.7-0.5c0.2,0.1,0.4,0.2,0.6,0.3c-0.9,1.3-1.7,2.7-2.2,4.2c-0.6,1.7-0.7,3.7-0.1,5.4c0.3,0.8,0.7,1.5,1.2,2.1
		C275.4,154.7,275.9,155.1,276.4,155.4z"/>
	<path class="st13" d="M295,155.9c-0.3,1.7-0.3,3.4,0.3,5c-1.1-1-1.9-2.3-2.3-3.7c-1.3,0.6-2.8,1.1-4.3,1.2c-0.1,0-0.3,0-0.4,0
		c-0.2-0.3-0.4-0.7-0.6-1.1c0.6,0,1.2-0.1,1.8-0.2c0.7-0.1,1.5-0.3,2.2-0.6c0,0,0,0,0,0c1.5-0.7,2.9-1.7,3.6-3.2
		c0.5-1,0.8-2.1,0.7-3.2c0.6,3.3,1.6,6.6,2.9,9.6C297.2,158.9,295.8,157.6,295,155.9z"/>
	<path class="st15" d="M295,146.2c-0.7-1.4-1.6-2.6-2.6-3.7c0.1,0,0.2-0.1,0.3-0.1c0.8,0.4,1.5,1.2,2,2c0.5,1.1,0.8,2.3,0.9,3.5
		C295.4,147.3,295.2,146.7,295,146.2z"/>
	<path class="st7" d="M501.8,234.5c-1,0.5-2,1-3,1.6c-0.9,0.6-1.9,1.1-2.9,1.6c-2,1.1-4,2-6.1,2.9c-4.1,1.7-8.4,3-12.8,3.9
		c-9,1.9-18.4,1.8-27.5,0c-2.6-0.5-5.1-1.2-7.6-2c-2.5-0.8-5-1.7-7.4-2.6c-0.3-0.1-0.5,0.4-0.2,0.5c2.1,1.1,4.2,2,6.5,2.7
		c2.3,0.8,4.6,1.4,6.9,1.9c4.6,1,9.2,1.6,13.9,1.7c9.2,0.2,18.4-1.4,27-4.8c2.3-0.9,4.6-2,6.9-3.1c1.1-0.6,2.3-1.2,3.4-1.9
		c1.1-0.7,2.1-1.4,3.1-2.2C502.2,234.6,502,234.4,501.8,234.5z"/>
	<path class="st7" d="M461.1,210.3c-4.1,0.8-7.9,2.9-11.2,5.4c-3.2,2.5-6,5.6-8,9.2c-1.2,2-2.1,4.2-2.6,6.5c0,0.1,0.1,0.2,0.2,0.1
		c1.6-3.8,3.4-7.4,6.1-10.5c2.6-3.1,5.8-5.6,9.3-7.5c2-1.1,4.2-1.9,6.3-2.6C461.6,210.7,461.5,210.2,461.1,210.3z"/>
	<path class="st7" d="M468.8,208.2c-0.5,0-1,0.1-1.5,0.2c-0.5,0.1-1,0.2-1.5,0.4c-0.3,0.1-0.2,0.5,0.1,0.5c0.5-0.1,1-0.2,1.5-0.4
		c0.5-0.1,1-0.3,1.4-0.5C469,208.4,469,208.2,468.8,208.2z"/>
	<path class="st7" d="M470.1,202.5c0-0.1,0-0.1,0-0.2c0-0.3-0.5-0.2-0.5,0c0,0.1,0,0.1-0.1,0.2c-0.1,0.1-0.2,0.3-0.2,0.4
		c-0.1,0.2-0.2,0.3-0.3,0.5c-0.3,0.3-0.6,0.4-1,0.5c-0.4,0-0.7-0.1-1-0.4c-0.3-0.3-0.6-0.6-0.6-1c0-0.3-0.5-0.4-0.5,0
		c0,0.5,0.2,1.2,0.6,1.5c0.4,0.4,1,0.7,1.6,0.7c0.6,0,1.2-0.2,1.6-0.6c0.2-0.2,0.4-0.4,0.5-0.7C470.1,203.1,470.2,202.7,470.1,202.5
		z"/>
	<path class="st9" d="M402.9,250.7c-7.6-1-15-2.9-22.2-5.6c-7.1-2.7-13.9-6.3-20.1-10.6c-6.4-4.4-12.1-9.6-17.4-15.3
		c-5.3-5.7-10.1-11.9-15-17.9c-4.9-6-10-12-15.8-17.2c-0.7-0.6-1.5-1.3-2.2-1.9c-0.2-0.2-0.6,0.1-0.3,0.3c5.7,5.4,11,11.2,16.1,17.3
		c5,6.1,9.9,12.3,15.2,18.2c5.2,5.8,10.8,11.2,17.1,15.7c6.2,4.5,12.9,8.3,20,11.2c7.1,2.9,14.5,5.1,22,6.3c0.9,0.1,1.9,0.3,2.8,0.4
		C403.5,251.8,403.5,250.8,402.9,250.7z"/>
	<path class="st9" d="M247.7,132.2c-1.6-0.7-3.2-1.4-4.6-2.6c-1.3-1.2-2.4-2.7-3-4.4c-1.3-3.6-0.5-7.7,1.7-10.7
		c0.2-0.2-0.2-0.5-0.4-0.3c-2.1,2.4-3,5.6-2.6,8.7c0.4,3,2,5.7,4.4,7.6c1.3,1,2.8,1.8,4.4,2C247.9,132.6,247.9,132.3,247.7,132.2z"
		/>
	<path class="st9" d="M308.9,93.8c-0.4-0.2-1-0.4-1.5-0.5c-0.6-0.1-1.1-0.3-1.7-0.4c-1.1-0.3-2.2-0.5-3.3-0.7
		c-0.2,0-0.3,0.3-0.1,0.3c1.1,0.3,2.2,0.6,3.3,0.9c0.5,0.1,1.1,0.3,1.6,0.4c0.5,0.1,1.1,0.3,1.6,0.3C309,94.1,309.1,93.9,308.9,93.8
		z"/>
	<path class="st9" d="M321,102.8c-1.7-3.3-4.8-5.5-7.8-7.6c-0.2-0.1-0.4,0.2-0.2,0.3c2.6,2.1,5.4,4.2,7.1,7.2c1.6,2.7,1.9,6.3,0.2,9
		c-0.1,0.2,0.2,0.4,0.3,0.2C322.7,109.4,322.4,105.7,321,102.8z"/>
	<path class="st16" d="M293,77c-4-0.2-7.9-1-11.5-2.6c-7.3,7.5-18.4,11.4-28.7,9.8c-1.5,2.7-3.9,4.9-6.7,6.3c-0.8-1.5-1.5-3-2.3-4.4
		c2.3-1.8,4-4.3,4.8-7.1c6.7,2.6,14.4,2.6,21,0c4.7-1.9,8.8-5,11.9-9c3.3,2.4,7,4.4,10.9,4.6C292.7,75.4,292.9,76.2,293,77z"/>
	<path class="st9" d="M283,46.6c-2.9-6.7-9.6-11.7-16.6-13.4c-7.3-1.8-14.8,0-20.8,4.4c-3.3,2.4-6,5.6-7.5,9.4
		c-0.1,0.2,0.3,0.4,0.4,0.2c3.4-6.3,9-11.3,16-13.2c7-1.9,14.4-0.4,20.3,3.8c3.3,2.4,5.9,5.5,7.9,9.1
		C282.7,47.1,283.1,46.9,283,46.6z"/>
	<path class="st9" d="M281,38.9c-1.2-2.4-3.6-4.3-5.9-5.6c-2.4-1.4-5-2.3-7.7-2.4c-0.2,0-0.3,0.3-0.1,0.4c2.6,0.5,5.1,1.3,7.4,2.7
		c2.3,1.4,4.1,3.3,5.9,5.2C280.8,39.4,281.1,39.2,281,38.9z"/>
	<path class="st9" d="M284.1,43c-0.1-0.1-0.1-0.2-0.2-0.3c-0.1-0.2-0.3-0.4-0.4-0.6c-0.3-0.4-0.5-0.7-0.8-1c-0.1-0.1-0.3-0.1-0.3,0
		c-0.1,0.1-0.1,0.2-0.1,0.3c0.2,0.4,0.4,0.7,0.7,1.1c0.1,0.2,0.2,0.4,0.4,0.5c0.1,0.2,0.3,0.5,0.5,0.5c0.1,0,0.3,0,0.4-0.2
		C284.2,43.3,284.2,43.1,284.1,43z"/>
	<path class="st7" d="M407.3,99.2c-4.8,4.3-7.5,10.5-9.5,16.5c-2.2,6.3-3.7,12.8-6.4,18.9c-2.6,5.8-6.1,11.2-10.3,16
		c-4.2,4.8-9.1,8.9-14.5,12.3c-5.4,3.4-11.3,6-17.4,7.7c-0.8,0.2-1.5,0.4-2.3,0.6c-0.1,0-0.1,0.2,0,0.2c6.3-1.2,12.2-3.4,17.8-6.6
		c5.5-3.1,10.6-7,15-11.6c4.4-4.6,8.2-9.8,11.1-15.5c3-5.9,4.7-12.2,6.7-18.5c2-6.4,4.3-12.6,8.6-17.9c0.5-0.6,1.1-1.3,1.6-1.9
		C407.7,99.3,407.4,99,407.3,99.2z"/>
	<path class="st7" d="M369.1,113c-1.7,0.4-3.4,0.8-5.2,1.2c-1.7,0.4-3.4,0.8-5.1,1.2c-3.4,0.8-6.9,1.5-10.4,2.1
		c-6.9,1.2-14,2.1-21,2.6c-4,0.3-7.9,0.5-11.9,0.6c-0.3,0-0.3,0.4,0,0.4c7.1,0.1,14.2-0.3,21.3-1.1c7-0.8,13.9-1.9,20.7-3.4
		c2-0.4,3.9-0.9,5.8-1.4c0.9-0.2,1.9-0.5,2.8-0.8c1-0.3,2-0.6,3-1C369.5,113.3,369.4,113,369.1,113z"/>
	<path class="st9" d="M271.5,140.1c-2,0.2-3.8,1-5.4,2.1c-0.8-0.7-1.6-1.5-2.3-2.4c-2.7-3.4-4.1-7.9-3.3-12.2c0,0,0,0,0,0
		c0.1,0.1,0.2,0.3,0.2,0.4c1.1,2.1,2.5,4.1,4,5.9C266.7,136.3,269,138.4,271.5,140.1z"/>
	<path class="st13" d="M276,142.5c-0.9,1.2-1.6,2.5-2.1,4c-2.9-0.9-5.6-2.3-7.8-4.2c1.6-1.1,3.5-1.9,5.4-2.1c1.3,0.8,2.6,1.5,4,2.1
		C275.7,142.3,275.9,142.4,276,142.5z"/>
	<path class="st13" d="M294.9,146c-2,0.7-4.1,1.1-6.2,1.4c-4.5,0.5-9.1,0.5-13.5-0.6c-0.4-0.1-0.8-0.2-1.3-0.3
		c0.5-1.4,1.3-2.7,2.1-4c0.6,0.3,1.3,0.5,1.9,0.7c2.5,0.8,5.1,1.2,7.6,1c1.9-0.1,3.7-0.5,5.5-1.2c0.4-0.2,0.8-0.3,1.3-0.6
		C293.3,143.6,294.2,144.7,294.9,146z"/>
	<path class="st13" d="M297,145c-0.7,0.4-1.4,0.7-2.2,1c-0.6-1.3-1.5-2.4-2.5-3.5c0.1,0,0.2-0.1,0.3-0.1c0.1,0,0.2-0.1,0.3-0.1
		C294.5,142.7,295.9,143.7,297,145z"/>
	<path class="st9" d="M303.6,132c0.1,4-1,8.2-3.8,11c-0.8,0.8-1.8,1.5-2.8,2c-1.1-1.3-2.5-2.3-4-2.8c4.3-2.3,7.4-6.2,9.3-10.7
		C302.7,131.7,303.2,131.8,303.6,132z"/>
	<path class="st11" d="M298.1,95.9c-1.1,0.2-2.2,0.1-3.2-0.1c-2.1-0.5-3.8-2.1-4.9-3.9c-0.9,2.3-3.1,4.1-5.5,4.5
		c-2.4,0.4-5-0.3-6.6-2.2c-1.9,5.1-6.2,9.2-11.3,10.9c-4.5,1.4-9.5,1-13.6-1.2c0-0.1,0-0.2,0-0.3v0c0-0.2,0-0.3,0.1-0.5
		c4.4,0.8,8.9,1.2,13.3,0c5.2-1.4,10-5.6,10.5-11c2.9,2.1,6.8,2.4,10.1,1.3c0.8-0.3,1.5-0.6,2.1-1.2c0.6-0.6,1-1.4,0.8-2.2
		c0.3,2,2.3,3.3,4.1,4.1c1,0.4,2.2,0.5,3.3,0.3c0.1,0,0.2,0,0.3,0C297.6,94.9,297.8,95.4,298.1,95.9z"/>
	<path class="st16" d="M304.2,66.8c-1.6,3.9-5.1,7.1-9.3,7.7c-0.8,0.1-1.6,0.2-2.4,0.1c-3.9-0.2-7.6-2.2-10.9-4.6
		c-3.1,4-7.2,7.1-11.9,9c-6.7,2.7-14.3,2.6-21,0c-0.8,2.8-2.5,5.3-4.8,7.1c0,0,0,0-0.1,0c-3.6,2.7-8.6,3.4-12.7,1.7
		c-3.9-1.6-7-5.4-7.6-9.6c1.5,1.8,3.6,3.2,5.9,3.9c3.8,1.1,8.1,0.1,11.1-2.5c3-2.6,4.6-6.7,4.1-10.7c7,5.1,16.8,5.9,24.6,2.2
		c7.7-3.8,13.1-12,13.5-20.6c0.3,3.4,1.2,7.1,2.3,10.4c1.2,3.3,3.3,6.3,6.5,7.7c3.7,1.7,8.3,1,11.7-1.3
		C303.5,67.3,303.8,67,304.2,66.8z"/>
	<path class="st9" d="M283.3,56.5c0-0.2-0.3-0.1-0.3,0c0.1,1.7,0.2,3.5,0.1,5.3c-0.1,1.7-0.3,3.5-0.5,5.2c0,0.1,0.2,0.2,0.2,0
		c0.6-1.7,0.8-3.5,0.9-5.2C283.8,60,283.6,58.3,283.3,56.5z"/>
	<path class="st9" d="M248,75.2c-0.2-0.9-0.6-1.6-1.1-2.3c-0.1-0.2-0.4,0-0.3,0.2c1.5,2.9,1.6,6.2,0.3,9.2c-0.1,0.2,0.2,0.3,0.2,0.1
		c0.9-1.4,1.2-3.1,1.2-4.8C248.4,76.8,248.3,76,248,75.2z"/>
	<path class="st9" d="M279.6,187.3c0.7,0.1,1.5-0.4,1.9-1c0.4-0.6,0.7-1.3,0.9-2c0.5-1.6,1.2-3.8,0-5.3c-1-1.4-2.3-1.2-3.4,0
		C277.4,180.5,276,187,279.6,187.3z"/>
	<path class="st9" d="M273.4,215.4c0.8,0.3,1.7-0.1,2.4-0.6c0.7-0.6,1.1-1.3,1.6-2.1c1-1.7,2.3-4,1.5-6c-0.8-1.8-2.3-1.9-3.8-0.9
		C272.8,207.1,269.5,214.1,273.4,215.4z"/>
	<path class="st9" d="M254.3,233.9c0.6,0.7,1.6,0.9,2.5,0.8c0.9-0.1,1.7-0.5,2.5-0.9c1.8-0.9,4.1-2.2,4.4-4.4c0.2-2.1-1.1-3-3-3
		C257.9,226.3,251.4,230.6,254.3,233.9z"/>
	<path class="st9" d="M368.7,247c-7.3-3.2-14.2-7.2-20.4-12.3c-6.5-5.4-11.8-11.8-16.5-18.7c-2.7-4-5.3-8.2-7.9-12.3
		c-0.2-0.3-0.7,0-0.5,0.3c4.4,7.5,9,14.9,14.5,21.6c5.2,6.3,11.4,11.7,18.3,16c3.9,2.4,7.9,4.4,12.2,6
		C368.8,247.8,369.1,247.1,368.7,247z"/>
	<path class="st9" d="M379.5,250.1c-1-0.4-2.1-0.5-3.2-0.7c-1.1-0.2-2.1-0.3-3.2-0.4c-0.2,0-0.2,0.3,0,0.3c1.1,0.2,2.1,0.5,3.2,0.7
		c1,0.2,2.1,0.5,3.2,0.4C379.7,250.4,379.7,250.1,379.5,250.1z"/>
	<path class="st9" d="M288.7,364.9c-4.7-2.6-9.3-5.3-13.6-8.5c-4.3-3.2-8.4-6.7-12.2-10.5c-7.5-7.6-13.9-16.3-18.9-25.7
		c-5-9.4-8.6-19.6-10.5-30.1c-2.3-12.8-1.3-26.1-4.6-38.8c-2.5-9.7-8.3-19.8-17.8-24.1c-1.1-0.5-2.3-0.9-3.5-1.1
		c-0.3-0.1-0.5,0.4-0.1,0.5c10.3,3.2,17,12.7,20,22.7c3.8,12.5,2.8,25.9,4.8,38.7c1.6,10.5,5,20.7,9.7,30.2c4.7,9.5,10.8,18.3,18,26
		c7.2,7.7,15.6,14.5,24.8,19.7c1.2,0.6,2.3,1.3,3.5,1.8C288.8,366,289.3,365.2,288.7,364.9z"/>
	<path class="st11" d="M91.1,288.9c-1.7-1.2-3.9-1.7-5.9-2.1c-2.1-0.4-4.3-0.7-6.4-0.8c-4.3-0.1-8.6,0.5-12.7,2.1
		c-0.4,0.1-0.2,0.7,0.2,0.6c4-1.1,8.2-1.7,12.4-1.5c2.1,0.1,4.2,0.3,6.2,0.7c2,0.4,4,1.1,6,1.5C91.2,289.5,91.4,289.1,91.1,288.9z"
		/>
	<path class="st11" d="M92,269.4c-1.6-1.1-3.6-1.7-5.5-2.2c-2-0.5-4-0.8-6-0.9c-4-0.2-8.1,0.3-11.9,1.7c-2.1,0.8-4.1,1.8-6,3
		c-0.3,0.2,0,0.6,0.3,0.4c6.8-3.8,14.9-5.1,22.5-3.3c2.2,0.5,4.2,1.3,6.3,2C92.2,270.1,92.3,269.6,92,269.4z"/>
	<path class="st11" d="M97.7,244.5c-1.7-1.6-4.1-2.5-6.3-3.3c-2.3-0.7-4.7-1.1-7-1.3c-4.7-0.2-9.3,0.8-13.5,2.9
		c-1.1,0.6-2.2,1.2-3.3,2c-1,0.7-2.1,1.5-2.9,2.5c-0.2,0.3,0.2,0.6,0.4,0.4c0.9-0.6,1.7-1.3,2.6-1.9c0.9-0.6,1.8-1.2,2.8-1.7
		c1.9-1,4-1.8,6.1-2.3c4.4-1.1,9.1-1,13.5,0.3c2.5,0.7,4.7,2,7.1,2.9C97.6,245.2,97.9,244.7,97.7,244.5z"/>
	<path class="st11" d="M88.9,325.8c-2.8,3.8-5.9,7.9-10.6,9.3C74,336.4,69,335.3,67,331c-0.9-2-1.1-4.5,0-6.5
		c0.1-0.2-0.2-0.4-0.3-0.2c-2.5,3.7-0.8,8.8,2.8,11c4.6,2.8,10.5,1.2,14.4-2.1c2.3-1.9,4.2-4.4,5.5-7.1
		C89.6,325.8,89.1,325.5,88.9,325.8z"/>
	<path class="st7" d="M206.5,258.5c-1.2,1.3-2.3,2.7-3.4,4c-1.1,1.3-2.3,2.5-3.4,3.7c-2.4,2.4-5,4.7-7.7,6.8
		c-5.5,4.3-11.4,8.1-17.3,11.7c-13.2,8-26.7,15.4-40.4,22.2c-3.9,1.9-7.8,3.8-11.8,5.7c-3.9,1.8-8,3.5-11.9,5.4
		c-0.4,0.2-0.1,0.8,0.3,0.6c3.6-1.4,7.2-3.1,10.8-4.7c3.5-1.6,7-3.3,10.5-5c7-3.4,13.9-6.9,20.7-10.6c6.9-3.7,13.7-7.6,20.4-11.6
		c6-3.6,11.9-7.3,17.4-11.5c3.1-2.3,6-4.8,8.8-7.4c1.4-1.4,2.8-2.8,4.1-4.2c1.3-1.4,2.5-2.9,3.5-4.6
		C207.2,258.6,206.8,258.2,206.5,258.5z"/>
	<path class="st7" d="M234.2,332.7c-1.7,3.3-3.3,6.8-5.1,10.1c-1.7,3.3-3.6,6.5-5.5,9.8c-3.8,6.4-8,12.7-12.4,18.7
		c-4.5,6.1-9.2,11.9-14.3,17.5c-5,5.6-10.3,10.9-15.9,15.9c-5.6,5.1-11.4,9.8-17.4,14.4c-0.7,0.6-1.5,1.1-2.2,1.7
		c-0.1,0.1,0,0.4,0.1,0.2c6.2-4.3,12-9,17.7-14c5.7-5,11.1-10.3,16.2-15.8c5.1-5.5,10-11.3,14.5-17.3c4.6-6,8.9-12.2,12.9-18.7
		c4-6.4,7.6-13,10.9-19.8c0.4-0.8,0.8-1.7,1.1-2.5C235.1,332.5,234.4,332.3,234.2,332.7z"/>
	<path class="st9" d="M184.4,460.9c-9.7-3.6-19.2-7.8-28.3-12.8c-9-5.1-17.6-10.9-25.7-17.4c-8-6.5-15.4-13.7-22.1-21.4
		c-6.8-7.8-12.9-16.2-18.3-25.1c-5.4-8.9-10-18.2-13.7-27.9c-0.5-1.2-0.9-2.3-1.3-3.5c-0.1-0.2-0.4-0.1-0.3,0.1
		c3.3,9.9,7.6,19.3,12.7,28.4c5.2,9,11.1,17.6,17.8,25.6c6.7,8,14,15.4,21.9,22.1c7.9,6.7,16.4,12.7,25.3,18
		c9,5.3,18.4,9.7,28.2,13.1c1.2,0.4,2.4,0.8,3.6,1.2C184.6,461.4,184.7,461,184.4,460.9z"/>
	<path class="st9" d="M89.1,366.6c-0.8-1.9-1.6-3.7-2.4-5.6c-1.6-3.7-3.2-7.5-5-11.2c-0.1-0.2-0.5-0.1-0.4,0.2
		c1.5,3.8,3.1,7.5,4.7,11.2c0.8,1.9,1.6,3.7,2.4,5.6c0.8,1.9,1.6,3.8,2.7,5.6c0.1,0.1,0.3,0.1,0.3-0.1
		C90.7,370.3,89.9,368.4,89.1,366.6z"/>
	<rect x="307.7" y="330.2" class="st8" width="31.3" height="8.4"/>
	<rect x="316.8" y="336.8" class="st17" width="31.3" height="8.4"/>
	<circle class="st2" cx="113.8" cy="160" r="6.5"/>
	<circle class="st2" cx="156.2" cy="180.8" r="15.6"/>
	<circle class="st18" cx="158.7" cy="129.5" r="6.5"/>
	<path class="st19" d="M341.8,56.3c-5.6-0.2-11.2,2.2-14.8,6.5s-5.2,10.2-4.1,15.7c5.7,0.8,11.6-0.9,15.5-5.1
		C342.2,69.1,343.1,61.9,341.8,56.3z"/>
	<path class="st10" d="M355.8,87.7c-3.6-4.3-9.2-6.8-14.8-6.6c-5.6,0.2-11,3-14.4,7.5c3.2,4.8,8.5,8,14.2,8
		C346.6,96.6,352.6,92.4,355.8,87.7z"/>
	<path class="st9" d="M367,309.1c-0.7-0.9-1.4-1.9-2.2-2.8c-1.5-1.9-2.9-3.9-4.5-5.6c-0.3-0.3-0.8,0.1-0.6,0.5
		c1.3,2,2.8,3.9,4.3,5.8c0.7,0.9,1.4,1.9,2.1,2.8c0.7,0.9,1.3,1.9,2.3,2.6c0.2,0.1,0.5-0.1,0.4-0.3C368.5,310.9,367.7,310,367,309.1
		z"/>
	<path class="st9" d="M371.9,306.1c-0.3-0.4-0.7-0.9-1-1.3c-0.7-0.9-1.3-1.7-2-2.6c-1.3-1.7-2.7-3.4-4.1-5c-0.2-0.2-0.6,0.1-0.4,0.3
		c1.3,1.7,2.5,3.5,3.9,5.2c0.6,0.8,1.3,1.7,1.9,2.5c0.3,0.4,0.7,0.9,1,1.3c0.3,0.4,0.6,0.8,1,1.1c0.2,0.1,0.5-0.1,0.5-0.4
		C372.5,306.8,372.2,306.4,371.9,306.1z"/>
	<path class="st7" d="M232.1,439.1c-0.3-0.5-0.9-0.8-1.4-1.1c-0.6-0.3-1.1-0.6-1.7-0.8c-1.2-0.5-2.5-0.8-3.8-1
		c-1.3-0.2-2.6-0.2-3.8-0.1c-1.1,0.1-2.7,0.2-3.5,1c-0.1,0.1-0.1,0.3,0.1,0.3c0.5,0.1,1,0,1.5-0.1c0.6-0.1,1.2-0.2,1.9-0.3
		c1.2-0.1,2.5,0,3.7,0.2c1.2,0.2,2.3,0.5,3.4,1c0.6,0.2,1.1,0.5,1.7,0.8c0.5,0.3,1,0.7,1.6,0.8C231.9,439.8,232.2,439.4,232.1,439.1
		z"/>
	<path class="st7" d="M237.2,424.2c-2.7-0.8-5.7-0.6-8.4-0.1c-2.8,0.6-5.4,1.6-7.7,3.3c-0.3,0.2,0,0.7,0.3,0.5
		c2.3-1.4,4.9-2.4,7.6-2.8c2.7-0.5,5.3-0.3,8.1,0C237.6,425.2,237.7,424.3,237.2,424.2z"/>
	<path class="st7" d="M239.9,412.2c-2-1.9-5-2.4-7.7-2.3c-2.8,0.2-5.3,1.2-7.3,3.2c-0.2,0.2,0.1,0.4,0.3,0.3c2-1.5,4.6-2.4,7.1-2.5
		c2.6-0.1,4.9,0.7,7.2,1.8C239.8,412.8,240.2,412.4,239.9,412.2z"/>
	<path class="st9" d="M250.8,171c-0.5-1.6-1.4-3-2.2-4.5c-0.9-1.5-1.8-2.9-2.8-4.3c-1.9-2.7-4.1-5.3-6.5-7.7
		c-4.8-4.8-10.3-8.8-16.4-11.8c-3.4-1.7-7-3.2-10.7-3.9c-0.3-0.1-0.5,0.4-0.1,0.5c3.1,1.2,6.3,2.2,9.3,3.7c3,1.4,5.9,3.1,8.6,4.9
		c5.5,3.8,10.4,8.4,14.3,13.7c1.1,1.5,2.1,3,3.1,4.5c1,1.6,1.8,3.3,2.8,4.9C250.4,171.5,251,171.3,250.8,171z"/>
	<path class="st9" d="M229.4,100.7c-0.4-0.3-0.9-0.7-1.3-1c-0.9-0.7-1.9-1.4-2.8-2.2c-1.8-1.4-3.6-2.8-5.5-4.1
		c-0.3-0.2-0.6,0.2-0.3,0.4c1.7,1.6,3.6,3,5.4,4.4c0.9,0.7,1.8,1.4,2.7,2.1c0.4,0.3,0.9,0.7,1.3,1c0.4,0.3,0.8,0.8,1.3,0.7
		c0.2,0,0.3-0.2,0.3-0.4C230.3,101.2,229.8,100.9,229.4,100.7z"/>
	<path class="st9" d="M225.2,105.5c-0.2-0.4-0.5-0.4-0.9-0.5c-0.5-0.1-0.9-0.2-1.4-0.3l-2.7-0.6c-1.8-0.4-3.6-0.8-5.5-1
		c-0.2,0-0.2,0.2-0.1,0.2c1.8,0.6,3.5,1,5.3,1.5c0.9,0.2,1.8,0.4,2.6,0.7c0.5,0.1,0.9,0.2,1.4,0.3c0.4,0.1,0.7,0.2,1,0
		C225.2,105.8,225.2,105.6,225.2,105.5z"/>
</g>
</svg>
