<?xml version="1.0" encoding="iso-8859-1"?>
<!-- Generator: Adobe Illustrator 19.0.1, SVG Export Plug-In . SVG Version: 6.00 Build 0)  -->
<svg version="1.1" xmlns="http://www.w3.org/2000/svg" xmlns:xlink="http://www.w3.org/1999/xlink" x="0px" y="0px"
	 viewBox="0 0 128 128" style="enable-background:new 0 0 128 128;" xml:space="preserve">
<g id="_x31_2">
	<path style="fill:#262626;" d="M123.786,16.321c-0.042-1.979-1.676-3.783-3.732-3.732c-6.296,0.155-12.591,0.311-18.887,0.466
		c0-3.15,0-6.3,0-9.451c0-4.803-7.464-4.811-7.464,0c0,3.212,0,6.423,0,9.635c-9.122,0.225-18.245,0.451-27.367,0.676
		c0-3.437,0-6.874,0-10.311c0-4.803-7.464-4.811-7.464,0c0,3.498,0,6.997,0,10.495c-9.122,0.225-18.245,0.451-27.367,0.676
		c0-3.724,0-7.447,0-11.171c0-4.803-7.464-4.811-7.464,0c0,3.785,0,7.57,0,11.355c-6.106,0.151-12.211,0.302-18.317,0.452
		c-0.649,0.016-1.202,0.175-1.676,0.423c-1.217,0.481-2.139,1.576-2.056,3.309C3.677,54.185,5.36,89.226,7.042,124.267
		c0.095,1.977,1.633,3.783,3.732,3.732c37.168-0.911,74.336-1.822,111.505-2.734c1.985-0.049,3.775-1.67,3.732-3.732
		C125.269,86.463,124.527,51.392,123.786,16.321z M118.47,117.895c-34.716,0.851-69.432,1.702-104.147,2.553
		c-1.14-23.749-2.281-47.498-3.421-71.247c35.357-1.337,70.682-2.888,106.069-2.223C117.47,70.617,117.97,94.256,118.47,117.895z
		 M31.506,27.654c0-1.805,0-3.61,0-5.415c9.122-0.225,18.245-0.45,27.367-0.676c0,2.03,0,4.06,0,6.091c0,4.803,7.464,4.811,7.464,0
		c0-2.092,0-4.183,0-6.275c9.122-0.225,18.245-0.451,27.367-0.676c0,2.317,0,4.634,0,6.951c0,4.803,7.464,4.811,7.464,0
		c0-2.378,0-4.757,0-7.135c5.079-0.125,10.157-0.251,15.236-0.376c0.137,6.457,0.273,12.913,0.41,19.37
		c-35.454-0.66-70.845,0.901-106.269,2.239C10.24,35.428,9.936,29.104,9.632,22.78c4.804-0.119,9.607-0.237,14.41-0.356
		c0,1.744,0,3.487,0,5.231C24.043,32.457,31.506,32.465,31.506,27.654z M41.884,63.942c0.807,11.916,1.615,23.831,2.422,35.747
		c0.325,4.803-7.141,4.767-7.464,0c-0.807-11.916-1.615-23.831-2.422-35.747C34.095,59.14,41.561,59.176,41.884,63.942z
		 M93.066,60.487c2.722,3.734,0.887,11.172,0.652,15.386c-0.414,7.436-0.992,14.858-1.679,22.273c-0.44,4.751-7.907,4.781-7.464,0
		c0.515-5.561,0.975-11.126,1.341-16.699c0.287-4.368,1.329-9.605,0.742-13.941c1.432-1.71,1.227-2.358-0.615-1.945
		c-1.436-0.023-2.871-0.046-4.307-0.069c-2.393-0.039-4.785-0.077-7.178-0.116c-5.264-0.085-10.528-0.169-15.792-0.254
		c-4.806-0.077-4.804-7.541,0-7.464c7.657,0.123,15.313,0.246,22.97,0.37C85.158,58.083,90.652,57.175,93.066,60.487z"/>
</g>
<g id="Layer_1">
</g>
</svg>
