<?xml version="1.0" encoding="iso-8859-1"?>
<!-- Generator: Adobe Illustrator 19.0.1, SVG Export Plug-In . SVG Version: 6.00 Build 0)  -->
<svg version="1.1" xmlns="http://www.w3.org/2000/svg" xmlns:xlink="http://www.w3.org/1999/xlink" x="0px" y="0px"
	 viewBox="0 0 128 128" style="enable-background:new 0 0 128 128;" xml:space="preserve">
<g id="_x32_2">
	<path style="fill:#262626;" d="M127.541,37.896c-0.019-11.07-0.038-22.139-0.057-33.208c-0.003-1.896-1.626-3.589-3.554-3.554
		c-17.549,0.317-35.099,0.633-52.648,0.95c-0.442,0.008-0.828,0.098-1.184,0.225c-0.012,0.004-0.023,0.008-0.035,0.012
		c-0.199,0.073-0.385,0.161-0.557,0.265c-0.06,0.034-0.118,0.07-0.178,0.109c-0.086,0.06-0.169,0.123-0.247,0.19
		c-0.104,0.08-0.211,0.145-0.312,0.24C46.186,24.345,23.602,45.564,1.019,66.784c-1.429,1.343-1.285,3.661,0,5.026
		c16.956,18.013,33.912,36.025,50.868,54.038c1.341,1.424,3.665,1.291,5.026,0c22.023-20.883,44.045-41.765,66.067-62.648
		C130.114,56.436,127.558,47.361,127.541,37.896z M114.118,61.812c-19.858,18.831-39.717,37.661-59.575,56.492
		C39.213,102.02,23.884,85.735,8.555,69.451c21.387-20.095,42.773-40.19,64.16-60.285c15.889-0.287,31.779-0.574,47.668-0.86
		c0.015,8.723,0.03,17.445,0.045,26.168c0.01,5.929,0.021,11.859,0.031,17.788C120.469,58.38,119.061,57.125,114.118,61.812z
		 M102.343,13.138c-7.742-3.864-15.557,0.231-19.679,7.652c-5.323,9.583,2.469,22.898,11.863,26.669
		c10.355,4.157,19.401-3.957,20.758-13.96c0.005-0.04,0-0.077,0.004-0.117c0.067-0.257,0.11-0.532,0.123-0.828
		C115.775,23.867,109.825,16.872,102.343,13.138z M93.987,38.84c-5.892-5.206-8.548-13.845-1.084-18.849
		c6.922-4.64,15.496,5.554,15.393,12.353C106.974,39.396,100.679,44.753,93.987,38.84z"/>
</g>
<g id="Layer_1">
</g>
</svg>
