<svg id="Layer_1" data-name="Layer 1" xmlns="http://www.w3.org/2000/svg" xmlns:xlink="http://www.w3.org/1999/xlink" viewBox="0 0 2000 2000"><defs><style>.cls-1,.cls-13,.cls-28,.cls-5{fill:none;}.cls-2{fill:#c7c7e3;}.cls-3{fill:#efefef;}.cls-4{clip-path:url(#clip-path);}.cls-5{stroke:#fff;stroke-width:7.19px;}.cls-13,.cls-28,.cls-5{stroke-miterlimit:10;}.cls-6{fill:#23d4ce;}.cls-7{fill:#22c8c6;}.cls-17,.cls-8{fill:#fff;}.cls-9{fill:#fdab71;}.cls-10{fill:#b6b6ce;}.cls-11{fill:#feb701;}.cls-12{opacity:0.45;}.cls-13{stroke:#a55bd6;stroke-width:2.87px;stroke-dasharray:17.27 17.27;}.cls-14{fill:#6b2eca;}.cls-15{fill:#ffa841;}.cls-16{opacity:0.39;}.cls-17{opacity:0.63;}.cls-18{fill:#7d56c9;}.cls-19{opacity:0.33;}.cls-20{clip-path:url(#clip-path-2);}.cls-21{fill:#001065;}.cls-22{fill:#303d8b;}.cls-23{fill:#ff7977;}.cls-24{fill:#c9e2f4;}.cls-25{fill:#f35757;}.cls-26{fill:#c80;}.cls-27{fill:#ffd283;}.cls-28{stroke:#001065;stroke-width:1.44px;}.cls-29{fill:#b0b0d6;}</style><clipPath id="clip-path"><path class="cls-1" d="M332.31,1671.31s1314.45,41.48,1365.37-43.38S2148.4,551.1,1401.6,703.86C848.84,816.92,1045.17,228.62,400.2,330.46-55.24,402.37,230.48,1484.61,332.31,1671.31Z"/></clipPath><clipPath id="clip-path-2"><circle class="cls-1" cx="897.05" cy="1184.16" r="85.31"/></clipPath></defs><path class="cls-2" d="M1081.3,325.78a1.5,1.5,0,0,0,0-3,1.5,1.5,0,0,0,0,3Z"/><path class="cls-3" d="M332.31,1671.31s1314.45,41.48,1365.37-43.38S2148.4,551.1,1401.6,703.86C848.84,816.92,1045.17,228.62,400.2,330.46-55.24,402.37,230.48,1484.61,332.31,1671.31Z"/><g class="cls-4"><rect class="cls-5" x="213.5" y="330.46" width="101.84" height="1561.49"/><rect class="cls-5" x="418.12" y="159.79" width="560.1" height="1799.11"/><rect class="cls-5" x="-108.04" y="414.38" width="2325.27" height="169.73"/><rect class="cls-5" x="78.66" y="668.97" width="2070.68" height="135.78"/><rect class="cls-5" x="1691.08" y="397.4" width="135.78" height="1359.71"/></g><path class="cls-6" d="M1049.58,1502.52c3.23,14.54-9.69,27.47-29.89,42s6.46,27.48,17,52.52c6.84,16.3-13.47,49.73-28.5,71.1H982.36c-.13,1.32-.27,2.55-.39,3.68-.66-1.2-1.3-2.43-1.91-3.68a107.05,107.05,0,0,1-4.35-10.28,149.94,149.94,0,0,1-6.76-26.22c-4.45-26.36-2.94-52.55-.48-64a21.29,21.29,0,0,1,1.53-4.94c5.25-10.1-10.91-18.18-13.33-31.1s14.54-21.82,8.08-47.67-12.92-122.88,54.94-118c55.75,4,25,73.52,17,93.72S1046.35,1488,1049.58,1502.52Z"/><path class="cls-7" d="M982.36,1668.15c-.13,1.32-.27,2.55-.39,3.68-.66-1.2-1.3-2.43-1.91-3.68H947.51c-7.69-16.93-23.44-46.86-43-58.17-27.87-16.16-24.64-47.67-24.64-67.06s-31.51-26.66-61.41-43.63-40.84-92.21-10.5-99.38c44.44-10.5,79.18,49.29,92.92,68.68s38.78,7.27,39.59,29.89c.71,20,12.85,45.17,28,69.17q2.92,4.65,6,9.2C987.83,1596.94,984.72,1645.43,982.36,1668.15Z"/><path class="cls-8" d="M1020.66,1439.26c-.11.18-11.15,19.41-19.7,60.83-7,34-13.56,89.49-7.91,168.06h-2.26c-5.64-78.83,1-134.56,8-168.68,8.62-41.71,19.81-61.15,19.92-61.34a1.12,1.12,0,0,1,1.54-.4A1.11,1.11,0,0,1,1020.66,1439.26Z"/><path class="cls-8" d="M977.84,1668.15h-2.28c-8-41.78-25.69-90.57-49-134-31.54-58.88-67.52-97.69-98.69-106.5a1.12,1.12,0,0,1-.78-1.38,1.13,1.13,0,0,1,1.39-.77c31.75,9,68.22,48.18,100.07,107.6A523.37,523.37,0,0,1,969,1631.65c2.6,8.92,4.86,17.68,6.76,26.22C976.47,1661.34,977.19,1664.76,977.84,1668.15Z"/><polygon class="cls-9" points="379.55 1670.92 370.42 1669.13 422.04 1426.77 448.39 1431.93 379.55 1670.92"/><polygon class="cls-9" points="493.69 1669.04 484.56 1667.25 536.18 1424.89 562.53 1430.05 493.69 1669.04"/><polygon class="cls-9" points="664.39 1662.71 673.63 1661.57 640.66 1416.23 613.99 1419.53 664.39 1662.71"/><polygon class="cls-9" points="764.37 1662.66 773.61 1661.52 737.89 1395.78 711.22 1399.08 764.37 1662.66"/><polygon class="cls-9" points="431.16 1409.39 384.02 1216.97 431.16 1216.97 447.6 1409.39 431.16 1409.39"/><polygon class="cls-9" points="508.98 1398.88 471.71 1201.2 508.98 1201.2 525.42 1398.88 508.98 1398.88"/><path class="cls-10" d="M361.62,1107.46a18.77,18.77,0,0,1,9.72-14.66c33-18,118.52-21.31,132.78-4.91,15.82,18.22,38.22,119.67,32.43,133.55-7.91,19-82.27,43.25-136.85,24.28C353.52,1229.67,358.88,1135.92,361.62,1107.46Z"/><path class="cls-2" d="M376.47,1090.3c20.78-1.27,71.49,141.76,23.23,155.42-44.05,12.47-52.5-84.49-50-132.64a23,23,0,0,1,15.17-20.25A41,41,0,0,1,376.47,1090.3Z"/><path class="cls-10" d="M609.38,1377.92s53.45.46,98.09-15.55c16.61-6,35.06,4.54,36.6,21.49.6,6.59-1.4,13.84-8.18,21.21-23.74,25.8-132,39.35-132,39.35Z"/><path class="cls-2" d="M409.2,1389.89s87.67,5.41,190.59-11.57c39.38-6.5,56,47.06,19.13,61.77-.55.22-1.11.43-1.69.64-45.88,16.7-181.93,9.11-208-7.59S394.22,1389.32,409.2,1389.89Z"/><rect class="cls-11" x="1082.82" y="669.91" width="430.54" height="602.75" rx="23.23"/><g class="cls-12"><rect class="cls-8" x="1168.92" y="1186.56" width="315.73" height="28.73" rx="6.48"/><rect class="cls-8" x="1168.92" y="1129.15" width="315.73" height="28.73" rx="6.48"/><rect class="cls-8" x="1168.92" y="1068.56" width="315.73" height="28.73" rx="6.48"/><rect class="cls-8" x="1168.92" y="1011.15" width="315.73" height="28.73" rx="6.48"/><rect class="cls-8" x="1168.92" y="956.94" width="315.73" height="28.73" rx="6.48"/><rect class="cls-8" x="1168.92" y="899.53" width="315.73" height="28.73" rx="6.48"/><rect class="cls-8" x="1168.92" y="842.13" width="315.73" height="28.73" rx="6.48"/><rect class="cls-8" x="1168.92" y="784.72" width="315.73" height="28.73" rx="6.48"/><rect class="cls-8" x="1168.92" y="727.32" width="315.73" height="28.73" rx="6.48"/></g><rect class="cls-13" x="939.3" y="842.13" width="373.13" height="487.94" rx="16.99"/><path class="cls-14" d="M1368.25,842.13v347.73a25.4,25.4,0,0,1-25.4,25.4H1024a28.93,28.93,0,0,1-28.93-28.93V753.17A25.85,25.85,0,0,1,1021,727.32h262.76Z"/><path class="cls-15" d="M1283.73,727.32v93.17a21.64,21.64,0,0,0,21.64,21.64h64.47"/><g class="cls-16"><rect class="cls-8" x="1054.11" y="1103.64" width="258.32" height="28.7" rx="6.47"/><rect class="cls-8" x="1054.11" y="1046.23" width="258.32" height="28.7" rx="6.47"/><rect class="cls-8" x="1054.11" y="985.64" width="258.32" height="28.7" rx="6.47"/><rect class="cls-8" x="1054.11" y="931.42" width="258.32" height="28.7" rx="6.47"/><rect class="cls-8" x="1054.11" y="870.83" width="258.32" height="28.7" rx="6.47"/><rect class="cls-8" x="1054.11" y="784.72" width="172.21" height="28.7" rx="6.47"/></g><rect class="cls-14" x="953.41" y="1264.29" width="28.7" height="34.54" transform="translate(-591.95 899.1) rotate(-39.16)"/><circle class="cls-11" cx="897.05" cy="1184.16" r="114.01"/><circle class="cls-17" cx="897.05" cy="1184.16" r="85.31"/><rect class="cls-18" x="1000.16" y="1262.9" width="40.86" height="166.29" rx="6.56" transform="translate(-620.8 946.96) rotate(-39.16)"/><g class="cls-19"><g class="cls-20"><rect class="cls-8" x="922.34" y="1068.41" width="31.69" height="236.14" transform="translate(307.41 -188.31) rotate(13.69)"/><rect class="cls-8" x="894.03" y="1065.11" width="3.8" height="236.14" transform="translate(305.43 -178.4) rotate(13.69)"/></g></g><path class="cls-21" d="M493.69,913.34c-22.27,32.85-20,53.69-2.3,67,44.07,23.49,91.25,24.49,127,7A30.69,30.69,0,0,0,630.94,976c15.08-24.3,7.09-51.5-16.71-84.63a70.59,70.59,0,0,0-5.15-6.42c-32.74-35.74-81.84-30-114,26.18C494.66,911.84,494.18,912.61,493.69,913.34Z"/><path class="cls-21" d="M533.17,1377.34l4.16-107.11,229.23,29.25a43.51,43.51,0,0,1,38,44.85h0a43.51,43.51,0,0,1-45.16,41.79Z"/><path class="cls-21" d="M759.65,1660.84a15.54,15.54,0,0,1-15.09,10.47H645.22l1.67-10.47,5.61-34.9h62.82l35.3,14.33C759.85,1644,762.38,1653.39,759.65,1660.84Z"/><path class="cls-21" d="M903.63,1626H840.81l-43-96.44L730.1,1377.74l-6.75-15.12a43.51,43.51,0,0,1,24.44-59.34l.25-.07a43.47,43.47,0,0,1,55.8,25.91l67.37,200.39Z"/><path class="cls-22" d="M730.81,1365.8l-.71,11.94L721,1529.51,715.2,1626H652.51l-1.57-96.44L647.83,1339a43.5,43.5,0,0,1,53.49-30.42l.22.07a43.47,43.47,0,0,1,29.27,57.13Z"/><path class="cls-22" d="M759.65,1660.84a15.54,15.54,0,0,1-15.09,10.47H645.22l1.67-10.47Z"/><path class="cls-21" d="M948,1660.84a15.54,15.54,0,0,1-15.09,10.47H833.52l1.67-10.47,5.61-34.9h62.82l35.3,14.33C948.15,1644,950.68,1653.39,948,1660.84Z"/><path class="cls-22" d="M948,1660.84a15.54,15.54,0,0,1-15.09,10.47H833.52l1.67-10.47Z"/><path class="cls-23" d="M804.7,911.36c-8.7-2-16.72,12.46-22.27,25.28-3.74-6.63-9-12.18-12.39-11.28-4.87,1.3-4,15.42-1.52,24.84a33.83,33.83,0,0,0,1.72,4.89,20.83,20.83,0,0,0,35.14,19,31.65,31.65,0,0,0,10.83-14.35C821.51,946.08,824.46,916,804.7,911.36Z"/><path class="cls-23" d="M740.41,1288.68c5.5-7-4.29-20.4-13.61-30.82,7.59-.61,14.83-3.06,15.44-6.51.86-5-12.31-10.12-21.91-11.79a33.57,33.57,0,0,0-5.16-.5,20.85,20.85,0,0,0-33,20.17,21.43,21.43,0,0,0,1,3.78,31.78,31.78,0,0,0,8.49,15.85C701.85,1289.38,727.91,1304.68,740.41,1288.68Z"/><path class="cls-11" d="M584.59,1034.16h0a48.08,48.08,0,0,1,67.62-7.18l109.58,88.54a37.79,37.79,0,0,1,5.65,53.14l-.15.18a37.8,37.8,0,0,1-48.68,8.76l-121.15-71.87A48.07,48.07,0,0,1,584.59,1034.16Z"/><path class="cls-23" d="M811.47,968.13l-33.15,182.34a40.4,40.4,0,0,1-53.22,30,39.44,39.44,0,0,1-5.29-2.34,40.26,40.26,0,0,1-19.13-49.3l19.13-48.39,49.94-126.35Z"/><path class="cls-24" d="M665.24,1278.86c-13.59,23.5-35.3,28-62.1,25-22.13-2.47-47.76-10-75.1-16.22-19.74-4.48-40.37-8.2-61.27-8.74V1021.51c15.9-12,37.46-19.44,61.27-22.18a200.23,200.23,0,0,1,57.15,2,193.44,193.44,0,0,1,58.73,20.21Z"/><path class="cls-23" d="M585,1005.11c-.79,13.1-5.2,28.18-21.46,27.39-28.5-1.37-35.39-31.33-35.39-31.33s2.33-42.87,3-43.3h52.94v28.54A92.24,92.24,0,0,1,585,1005.11Z"/><path class="cls-25" d="M585,1005.11C544,996.6,538.18,975,538.18,975l41.18-17.12h4.72v28.54A92.24,92.24,0,0,1,585,1005.11Z"/><path class="cls-23" d="M602.4,969.85a28,28,0,0,1-7.17,12.31,30.46,30.46,0,0,1-13.76,7.92c-45.8,12.31-58.11-47.75-58.11-47.75l.17-6.5.81-30c6.8-1.87,27.92-4.09,46.62-5.47.3,0,.59-.05.91-.05,14.08-1,26.64-1.57,30.33-1.11.86,6.21,1.57,11.89,2.14,17.14C607,941.12,606.19,956.11,602.4,969.85Z"/><path class="cls-25" d="M520.46,946.85c.16,0,9.13-9.77,17,3.4,0,0-13.85-6.53-16.82-3.4"/><polygon class="cls-26" points="653.66 1139.07 648.63 1078.31 658.73 1142.07 653.66 1139.07"/><path class="cls-11" d="M665.24,1278.86c-13.59,23.5-35.3,28-62.1,25L585.19,1001.3a193.44,193.44,0,0,1,58.73,20.21Z"/><path class="cls-11" d="M528,999.33V1287.6c-19.74-4.48-40.37-8.2-61.27-8.74V1021.51C482.67,1009.47,504.23,1002.07,528,999.33Z"/><path class="cls-26" d="M466.77,1159s-1,92.62,68,85.12c0,0-24.65-4.58-29.35-9.12S475.57,1208.13,466.77,1159Z"/><path class="cls-11" d="M470.43,1021.43h0a48.09,48.09,0,0,1,58.15,35.26l33.53,136.83a37.78,37.78,0,0,1-27.71,45.7l-.23.06a37.79,37.79,0,0,1-44-22.53l-52.84-130.58A48.08,48.08,0,0,1,470.43,1021.43Z"/><path class="cls-23" d="M714.44,1238.52l-20.35,41.7-176.17-40a40.78,40.78,0,0,1-20.43-12,40.42,40.42,0,0,1,44.72-64.88l14,6.13Z"/><polygon class="cls-27" points="528.58 1056.69 552.05 1169.88 556.24 1168.7 528.58 1056.69"/><path class="cls-22" d="M464.5,1324.05l1.81-46.64,229.24,29.25a43.52,43.52,0,0,1,38,44.85h0a43.51,43.51,0,0,1-45.17,41.79l-165.72-6.43a60.53,60.53,0,0,1-58.13-62.82Z"/><path class="cls-11" d="M719.81,1080.47c5.4,37.46,5.53,70.15,0,97.69a40.26,40.26,0,0,1-19.13-49.3Z"/><path class="cls-11" d="M556.24,1169.55c-9.15,30.15-25.44,52.4-49.2,66.38a40.4,40.4,0,0,1,35.17-72.51Z"/><ellipse class="cls-23" cx="528.77" cy="950.25" rx="12.18" ry="15.68"/><path class="cls-25" d="M520.46,947.83c-.16.08,8.57-9.23,15.13,1.23C535.59,949.06,526.05,945,520.46,947.83Z"/><path class="cls-21" d="M571.87,900.31c14.08-1,26.64-1.57,30.33-1.11.86,6.21,1.57,11.89,2.14,17.14a19,19,0,0,1-33.87-11.74,18.5,18.5,0,0,1,.49-4.24Z"/><path class="cls-21" d="M571,900.36c-18.7,1.38-39.82,3.6-46.62,5.47l-.81,30a31.91,31.91,0,0,0,19.82,6.82c16,0,29.21-11.59,31-26.56a27.49,27.49,0,0,0,.22-3.52,28.86,28.86,0,0,0-2.71-12.26Z"/><path class="cls-28" d="M707,1071.26s6.34,78-4.38,96.86"/><path class="cls-28" d="M548.43,1160.56s-16,45.29-50.94,67.74"/><polygon class="cls-23" points="720.99 1529.51 715.21 1625.95 652.51 1625.95 650.94 1529.51 720.99 1529.51"/><polygon class="cls-23" points="903.63 1625.95 840.81 1625.95 797.79 1529.51 871.21 1529.51 903.63 1625.95"/><path class="cls-22" d="M722.36,1538.61H650.28c-2.74-9.87-4-19.22,0-26.64h72.08A48.89,48.89,0,0,1,722.36,1538.61Z"/><path class="cls-22" d="M878.9,1538.61H787.47c-3.46-9.87-5.11-19.22,0-26.64H878.9C882.18,1521.8,881.86,1530.58,878.9,1538.61Z"/><path class="cls-7" d="M1678.64,1216.25c-125.15,72.3-119.21,209.43-62.39,176.09,0,0,2.14,48.24,41.07,27.85s6.49-83.43,9.27-131.64S1678.64,1216.25,1678.64,1216.25Z"/><path class="cls-22" d="M1609.12,1504a1.29,1.29,0,0,1-1.29-1.27,890.14,890.14,0,0,1,5.34-95.41c5.3-48.13,17.07-114.2,43.06-155.59a1.29,1.29,0,0,1,2.18,1.37c-25.73,41-37.41,106.64-42.68,154.5a892.24,892.24,0,0,0-5.33,95.1,1.28,1.28,0,0,1-1.27,1.3Z"/><path class="cls-29" d="M1620.83,1366.53a2.79,2.79,0,0,1-.91-.14c-4.05-1.33-5.83-18.5-6.53-28.62a1.29,1.29,0,0,1,2.57-.17c.82,11.87,2.94,25.3,4.79,26.35,0,0,.14,0,.4-.09,2.06-1.09,4.59-7.57,5.7-11.39a1.29,1.29,0,1,1,2.47.71c-.53,1.83-3.34,11-7,13A3.27,3.27,0,0,1,1620.83,1366.53Z"/><path class="cls-22" d="M1630.39,1325.25a5.92,5.92,0,0,1-1.74-.26c-6.89-2.07-8.4-18.41-8.55-20.27a1.28,1.28,0,1,1,2.56-.2c.52,6.33,2.8,16.82,6.74,18a2.87,2.87,0,0,0,2.48-.28c2.48-1.53,3.87-6.5,4.19-8.28a1.29,1.29,0,0,1,2.54.46c-.06.3-1.41,7.57-5.38,10A5.37,5.37,0,0,1,1630.39,1325.25Z"/><path class="cls-6" d="M1486.75,1213.46c124.22-2.16,199.62,196.2,107.84,183.23,0,0-26.26,19.17-49.75-3.08s-7.41-89-17.92-116.18S1486.75,1213.46,1486.75,1213.46Z"/><path class="cls-7" d="M1434.84,1275.42c92.08,2,193.89,130.69,136.49,141.13,0,0-11.74,38.25-59.9,12.29s-27-81-38.9-108.11C1460.79,1294.11,1434.84,1275.42,1434.84,1275.42Z"/><path class="cls-22" d="M1581.3,1482a1.28,1.28,0,0,1-1.16-1.83c7.25-15.4,12.38-45.31,13.09-76.2.78-34.32-4-62.19-13-76.45-20.63-32.5-39.61-63.08-45.25-80a1.29,1.29,0,1,1,2.44-.81c5.55,16.64,25.26,48.37,45,79.44,20.81,32.79,15.09,123.22.08,155.12A1.28,1.28,0,0,1,1581.3,1482Z"/><path class="cls-22" d="M1557.47,1288.34l-22-14.15a1.29,1.29,0,0,1,1.4-2.17l17.46,11.25c-.29-4.61-.4-14,3-18.94a1.29,1.29,0,1,1,2.11,1.48c-4,5.71-2.37,19.67-2.35,19.81Z"/><path class="cls-22" d="M1581.65,1329.81l-3.27-5.16c-1.2-1.88-10.17-6.64-15.55-9.19a1.29,1.29,0,0,1,1.11-2.33c1.87.89,9.56,4.61,13.88,7.67-.53-6.37-.8-20.14,5.6-27.53a1.29,1.29,0,1,1,1.95,1.69c-7.56,8.72-4.66,28.61-4.63,28.81Z"/><path class="cls-22" d="M1595.52,1486.37a1.29,1.29,0,0,1-1.29-1.23c-2.18-47.53-27.26-77.86-50-90.4-18.56-10.23-51-60.55-64.17-85.22a1.29,1.29,0,1,1,2.27-1.22c13.09,24.44,45.06,74.22,63.14,84.19,6.85,3.77,20.06,12.65,31.63,29.7,12,17.67,18.61,38.81,19.71,62.83a1.29,1.29,0,0,1-1.22,1.35Z"/><path class="cls-22" d="M1499.59,1339.13l-1.46-.17c-8.71-1-12.26-5.56-12.41-5.75a1.29,1.29,0,1,1,2-1.56c.06.07,2.75,3.42,9.2,4.55,0-4.53.62-16.82,5.84-19.73a1.29,1.29,0,0,1,1.25,2.26c-3.55,2-4.65,12.65-4.5,18.92Z"/><path class="cls-22" d="M1531.73,1384.52l-5.43-6.12c-2.33-2.61-11.8-6-15.25-7a1.29,1.29,0,0,1,.76-2.46,80.87,80.87,0,0,1,12.63,5.08c-2.57-6.9-6.47-20-.67-23.61a1.29,1.29,0,0,1,1.36,2.19c-4.26,2.65-.23,16.41,3.31,24.47Z"/><polygon class="cls-22" points="1666.59 1452.94 1665.43 1467.78 1661.78 1514.53 1650.27 1662.11 1649.42 1672.96 1541.62 1672.96 1538.79 1636.77 1528.32 1502.58 1525.61 1467.78 1524.45 1452.94 1666.59 1452.94"/><polygon class="cls-21" points="1666.59 1452.94 1665.43 1467.78 1525.61 1467.78 1524.45 1452.94 1666.59 1452.94"/><path class="cls-21" d="M1661.78,1514.53l-11.51,147.58c-21.22-2.21-44.16-14.32-46.1-31.8-3.09-27.81,26-40.79,33.17-56.85s-15.55-17.79-12.16-35.85C1627.89,1523.22,1640.57,1514.19,1661.78,1514.53Z"/><path class="cls-21" d="M1563.38,1588.31c-5.56,21-25.37,23.46-21.64,32.73,1.77,4.41,0,10.79-3,15.73l-10.47-134.19c41.91,1.35,28.38,31.27,20.85,40C1541.13,1551.83,1568.94,1567.33,1563.38,1588.31Z"/><path class="cls-14" d="M1578.58,836.27a17.15,17.15,0,0,1-8.52-9q-2.55-6.06.9-13a15.5,15.5,0,0,1,9.44-8.25,16.21,16.21,0,0,1,12.66,1,16.05,16.05,0,0,1,7.38,21.81q-3.4,6.86-9.74,8.59A16.55,16.55,0,0,1,1578.58,836.27Zm5.31-131q4.6-9.3,15.3-15.9t25.26-7.19q14.55-.6,29.83,7,14.21,7,22.48,17.64a45.39,45.39,0,0,1,9.75,22.56,39,39,0,0,1-3.77,22.52,33.69,33.69,0,0,1-10.59,12.92,49.7,49.7,0,0,1-13.39,6.85q-6.9,2.25-24.28,7.07a75.52,75.52,0,0,0-8,2.69,24.41,24.41,0,0,0-5.07,2.74,23,23,0,0,0-3.41,3.07q-1.49,1.63-4.93,5.9-6.9,9.27-16.69,4.42a13.27,13.27,0,0,1-6.93-7.56q-1.83-5.06,1.42-11.62a38.74,38.74,0,0,1,21.59-20.22,172.26,172.26,0,0,1,16.71-5.2q9-2.38,13.15-3.8a31,31,0,0,0,7.78-3.89,16.74,16.74,0,0,0,5.6-6.5,19.31,19.31,0,0,0,.71-16.1q-3.17-8.26-12.37-12.83-10.77-5.33-18.55-2.41T1609,719.16q-8.82,9.42-18.11,4.82a13.84,13.84,0,0,1-7.34-8.45Q1581.66,709.8,1583.89,705.29Z"/><path class="cls-14" d="M810,710.27q-4.92-9.15-4.07-21.69t8.8-24.74q8-12.21,23-20.26,14-7.49,27.42-8.07a45.38,45.38,0,0,1,24,5.15,39.07,39.07,0,0,1,16.15,16.14,33.79,33.79,0,0,1,4.37,16.13,49.63,49.63,0,0,1-2.19,14.87q-2.18,6.94-8.34,23.88a78,78,0,0,0-2.43,8.06,24.07,24.07,0,0,0-.72,5.72,23,23,0,0,0,.52,4.55c.32,1.44,1,3.93,2,7.45q3.54,11-6.09,16.16a13.25,13.25,0,0,1-10.18,1.24q-5.18-1.44-8.63-7.89a40.71,40.71,0,0,1-5-15.35,40.26,40.26,0,0,1,1.07-14A174.18,174.18,0,0,1,875.11,701q3.27-8.68,4.54-12.91a31.37,31.37,0,0,0,1.35-8.59,16.8,16.8,0,0,0-2-8.33,19.35,19.35,0,0,0-12.7-9.93q-8.57-2.22-17.62,2.64Q838,669.57,835.9,677.6t0,20.29q2.57,12.65-6.58,17.54a13.86,13.86,0,0,1-11.14,1.08Q812.4,714.7,810,710.27ZM913.6,790.61a17.19,17.19,0,0,1-12.29,1.69q-6.43-1.45-10.09-8.29A15.57,15.57,0,0,1,890,771.53a16.24,16.24,0,0,1,8.18-9.71,16,16,0,0,1,22,6.65q3.62,6.74,1.35,12.92A16.59,16.59,0,0,1,913.6,790.61Z"/><path class="cls-14" d="M1548.23,1211.78a14.17,14.17,0,0,1-7-7.45q-2.1-5,.74-10.74a12.89,12.89,0,0,1,7.79-6.81,13.45,13.45,0,0,1,10.45.84,13.26,13.26,0,0,1,6.08,18q-2.79,5.66-8,7.09A13.67,13.67,0,0,1,1548.23,1211.78Zm4.38-108.06q3.8-7.67,12.62-13.11a42.44,42.44,0,0,1,20.84-5.94q12-.48,24.62,5.75a52.43,52.43,0,0,1,18.54,14.55,37.41,37.41,0,0,1,8,18.61,32.22,32.22,0,0,1-3.1,18.58,27.89,27.89,0,0,1-8.75,10.66,41,41,0,0,1-11,5.65q-5.7,1.86-20,5.83a61.21,61.21,0,0,0-6.58,2.23,20.3,20.3,0,0,0-4.19,2.25,19.12,19.12,0,0,0-2.81,2.53c-.81.91-2.17,2.53-4.07,4.88q-5.7,7.63-13.77,3.64a10.91,10.91,0,0,1-5.71-6.24q-1.52-4.17,1.17-9.58a31.91,31.91,0,0,1,17.81-16.69A144,144,0,0,1,1590,1143q7.4-2,10.85-3.13a25.49,25.49,0,0,0,6.41-3.21,13.81,13.81,0,0,0,4.62-5.36,16,16,0,0,0,.59-13.29q-2.62-6.81-10.21-10.58-8.88-4.39-15.31-2t-13.64,9.7q-7.26,7.77-14.94,4a11.4,11.4,0,0,1-6.06-7A10.88,10.88,0,0,1,1552.61,1103.72Z"/></svg>